<svg id="601828d7-3f2d-45e9-a3f5-65b2b0b3df3e" data-name="Layer 1" xmlns="http://www.w3.org/2000/svg" xmlns:xlink="http://www.w3.org/1999/xlink" viewBox="0 0 1629.5 574.5"><defs><linearGradient id="416f093b-93cd-42b0-a9ba-b37f56aefd10" x1="313.44" y1="787.91" x2="313.44" y2="786.91" gradientTransform="matrix(152.75, 0, 0, -193.13, -46362.37, 152491.12)" gradientUnits="userSpaceOnUse"><stop offset="0" stop-color="#fe340e"/><stop offset="1" stop-color="#e70ece"/></linearGradient><linearGradient id="ff110837-b46a-4863-b440-8f819c0fa9f8" x1="314.87" y1="788.29" x2="314.87" y2="787.29" gradientTransform="matrix(497.46, 0, 0, -298.27, -155529.37, 235142.5)" gradientUnits="userSpaceOnUse"><stop offset="0" stop-color="#e70ece"/><stop offset="1" stop-color="#0c1fff"/></linearGradient><linearGradient id="6dd48f5d-e353-4a99-a7fd-99934c9c9b6a" x1="310.66" y1="786.91" x2="310.66" y2="785.91" gradientTransform="matrix(65.05, 0, 0, -101.01, -19117.64, 79597.51)" xlink:href="#ff110837-b46a-4863-b440-8f819c0fa9f8"/><linearGradient id="cdd54ff4-6285-4fcc-8718-0bfac8b05017" x1="299.34" y1="788.03" x2="299.34" y2="787.03" gradientTransform="matrix(20.44, -11.33, -15.91, -28.7, 7024.26, 26085.62)" gradientUnits="userSpaceOnUse"><stop offset="0" stop-color="#0c1fff"/><stop offset="1" stop-color="#17ead9"/></linearGradient><linearGradient id="d60f5319-b646-4f09-b24e-f5a8751b2a2e" x1="308.87" y1="787.93" x2="308.87" y2="786.93" gradientTransform="matrix(49.83, -27.62, -14.36, -25.91, -3470.58, 28992.44)" xlink:href="#cdd54ff4-6285-4fcc-8718-0bfac8b05017"/><linearGradient id="782f297b-7c5d-46c3-9be1-8e16307aa24a" x1="299.25" y1="788.03" x2="299.25" y2="787.03" gradientTransform="matrix(20.34, -11.27, -15.91, -28.7, 7079.49, 26055.01)" xlink:href="#cdd54ff4-6285-4fcc-8718-0bfac8b05017"/><linearGradient id="782653d5-9423-4334-8c16-bb25bbd5179a" x1="-62.64" y1="757.18" x2="-62.64" y2="757.18" gradientTransform="matrix(0.88, -0.49, -0.49, -0.88, 1042.29, 702.45)" xlink:href="#cdd54ff4-6285-4fcc-8718-0bfac8b05017"/><linearGradient id="f545fd3c-53c4-4759-9556-e18b2e6dd195" x1="295.3" y1="737.04" x2="298.21" y2="728.87" gradientTransform="matrix(8.9, 4.34, 2.65, -5.44, -3802.79, 2840.87)" gradientUnits="userSpaceOnUse"><stop offset="0" stop-color="#fe340e"/><stop offset="1" stop-color="#ff7500"/></linearGradient><linearGradient id="8458a9d3-1017-4819-93ee-dcb93763e104" x1="295.3" y1="737.11" x2="298.22" y2="728.93" gradientTransform="matrix(8.9, 4.34, 2.66, -5.45, -3800.3, 2840.34)" xlink:href="#f545fd3c-53c4-4759-9556-e18b2e6dd195"/><linearGradient id="3ca475fc-5101-40da-bc13-f26e7c81e91f" x1="292.45" y1="730.72" x2="295.36" y2="722.55" gradientTransform="matrix(7.75, 3.78, 2.38, -4.87, -3210.72, 2557.92)" xlink:href="#f545fd3c-53c4-4759-9556-e18b2e6dd195"/><linearGradient id="62e6757b-bce3-4d36-a46d-700f506f8840" x1="310.7" y1="785.93" x2="313.62" y2="777.75" gradientTransform="matrix(44.4, 21.65, 27.34, -56.06, -34484.3, 37295.58)" xlink:href="#f545fd3c-53c4-4759-9556-e18b2e6dd195"/><linearGradient id="c503b52c-2ee3-412e-bbc1-1f2cb7bd7df8" x1="278.14" y1="763.98" x2="278.14" y2="762.98" gradientTransform="matrix(8.43, 0, 0, -8.43, -2301.06, 6529.22)" gradientUnits="userSpaceOnUse"><stop offset="0" stop-color="#0c1fff"/><stop offset="1" stop-color="#b65eba"/></linearGradient><linearGradient id="abccbf6e-dbf4-4726-8e11-4a195b051b1a" x1="312.23" y1="786.81" x2="312.23" y2="785.81" gradientTransform="matrix(96.44, 0, 0, -96.45, -30064.54, 75924.98)" xlink:href="#c503b52c-2ee3-412e-bbc1-1f2cb7bd7df8"/><linearGradient id="82d5adb1-03c8-4d61-8b10-b0ef0ae00181" x1="288.32" y1="770.79" x2="288.32" y2="769.79" gradientTransform="matrix(11.59, 0, 0, -11.59, -2687.92, 9197.33)" xlink:href="#416f093b-93cd-42b0-a9ba-b37f56aefd10"/><linearGradient id="895f9436-9b66-4d1f-a534-4df4682505d4" x1="288.32" y1="770.8" x2="288.32" y2="769.8" gradientTransform="matrix(11.59, 0, 0, -11.59, -2686.64, 9105.45)" xlink:href="#416f093b-93cd-42b0-a9ba-b37f56aefd10"/><linearGradient id="4188566b-d05a-4f7a-97dc-a52998603fa8" x1="233.94" y1="734.37" x2="233.94" y2="733.37" gradientTransform="matrix(3.86, 0, 0, -3.86, -265.81, 3035.84)" xlink:href="#416f093b-93cd-42b0-a9ba-b37f56aefd10"/><linearGradient id="625c9efa-e427-4240-bb78-7b397cb4a11e" x1="233.94" y1="734.37" x2="233.94" y2="733.37" gradientTransform="matrix(3.86, 0, 0, -3.86, -283.19, 3022.32)" xlink:href="#416f093b-93cd-42b0-a9ba-b37f56aefd10"/><linearGradient id="d42cbb44-b2d5-4e03-a417-904993ba9f39" x1="233.94" y1="734.37" x2="233.94" y2="733.37" gradientTransform="matrix(3.86, 0, 0, -3.86, -246.5, 3051.29)" xlink:href="#416f093b-93cd-42b0-a9ba-b37f56aefd10"/><linearGradient id="949ec5c3-bf60-4fa5-ae20-64369d8093ae" x1="233.94" y1="734.37" x2="233.94" y2="733.37" gradientTransform="matrix(3.86, 0, 0, -3.86, -263.88, 3059.01)" xlink:href="#416f093b-93cd-42b0-a9ba-b37f56aefd10"/><linearGradient id="be9344b6-019c-40a8-b812-e21171d985bc" x1="233.94" y1="734.37" x2="233.94" y2="733.37" gradientTransform="matrix(3.86, 0, 0, -3.86, -234.91, 3022.32)" xlink:href="#416f093b-93cd-42b0-a9ba-b37f56aefd10"/><linearGradient id="7456d220-8599-4fcd-bcd3-6a994cdf9277" x1="311.45" y1="786.15" x2="311.45" y2="785.15" gradientTransform="matrix(77.78, 0, 0, -73.92, -23596.71, 58291.46)" xlink:href="#416f093b-93cd-42b0-a9ba-b37f56aefd10"/><linearGradient id="9aded13b-1211-4a04-b9aa-92a00bda53be" x1="292.2" y1="776.86" x2="292.2" y2="775.86" gradientTransform="matrix(13.52, 0, 0, -17.37, -3315.15, 13678.99)" xlink:href="#416f093b-93cd-42b0-a9ba-b37f56aefd10"/><linearGradient id="dd52e467-63de-4b2b-af1c-53df3db7844a" x1="299.19" y1="778.08" x2="299.19" y2="777.08" gradientTransform="matrix(19.31, 0, 0, -19.31, -5210.45, 15198.49)" xlink:href="#416f093b-93cd-42b0-a9ba-b37f56aefd10"/><linearGradient id="e445a320-74c8-4e1f-b3cb-f3075aaf2c66" x1="308.25" y1="784.14" x2="308.25" y2="783.14" gradientTransform="matrix(43.42, 0, 0, -43.43, -12779.98, 34270.67)" xlink:href="#416f093b-93cd-42b0-a9ba-b37f56aefd10"/><linearGradient id="a1c7c606-d0d5-4e38-a76c-f9e5cc728b41" x1="307.53" y1="783.66" x2="307.53" y2="782.66" gradientTransform="matrix(39.5, 0, 0, -39.5, -11551.13, 31184.51)" xlink:href="#416f093b-93cd-42b0-a9ba-b37f56aefd10"/><linearGradient id="9f239863-96db-4910-bd53-7f7561f4da6a" x1="304.47" y1="781.61" x2="304.47" y2="780.61" gradientTransform="matrix(28.55, 0, 0, -28.55, -8120.34, 22575.4)" xlink:href="#416f093b-93cd-42b0-a9ba-b37f56aefd10"/><linearGradient id="63f1e632-f927-48ce-aad8-da6a91c04ce1" x1="303.85" y1="781.19" x2="303.85" y2="780.19" gradientTransform="matrix(27.03, 0, 0, -27.03, -7628.33, 21359.94)" xlink:href="#416f093b-93cd-42b0-a9ba-b37f56aefd10"/><linearGradient id="27087068-caad-4155-8e8b-492a50e4aa14" x1="304.06" y1="788.57" x2="304.06" y2="787.57" gradientTransform="matrix(28.65, -16.54, -29.21, -50.59, 14627.63, 44963.13)" gradientUnits="userSpaceOnUse"><stop offset="0" stop-color="#e70ece"/><stop offset="1" stop-color="#844bc5"/></linearGradient><linearGradient id="1e983923-1865-477f-8c0e-457f3ffb2356" x1="306.5" y1="782.52" x2="306.5" y2="781.52" gradientTransform="matrix(24.77, 8.05, 14.21, -43.74, -17939.71, 31972.23)" gradientUnits="userSpaceOnUse"><stop offset="0" stop-color="#f1eab9"/><stop offset="1" stop-color="#ff8c8c"/></linearGradient><linearGradient id="d519a50b-9f8e-4d17-a0e5-10c4588ef99e" x1="249.43" y1="744.75" x2="249.43" y2="743.75" gradientTransform="matrix(4.77, 0, 0, -4.77, -1034.17, 3673.45)" xlink:href="#416f093b-93cd-42b0-a9ba-b37f56aefd10"/><linearGradient id="37870ec1-c46a-4e36-b18c-2b1ad2b37fa2" x1="249.43" y1="744.75" x2="249.43" y2="743.75" gradientTransform="matrix(4.77, 0, 0, -4.77, -1038.22, 3683.29)" xlink:href="#416f093b-93cd-42b0-a9ba-b37f56aefd10"/><linearGradient id="872fe0d8-b7a6-4eca-81cf-e5bc43dd5e76" x1="249.43" y1="744.75" x2="249.43" y2="743.75" gradientTransform="matrix(4.77, 0, 0, -4.77, -994.92, 3672.59)" xlink:href="#416f093b-93cd-42b0-a9ba-b37f56aefd10"/><linearGradient id="1c07a85d-e734-40fb-9f83-19ffabcf8334" x1="249.43" y1="744.75" x2="249.43" y2="743.75" gradientTransform="matrix(4.77, 0, 0, -4.77, -998.97, 3682.42)" xlink:href="#416f093b-93cd-42b0-a9ba-b37f56aefd10"/><linearGradient id="6af45985-d761-4d50-9b0f-e2840c3bea25" x1="303.91" y1="782.76" x2="303.91" y2="781.76" gradientTransform="matrix(27.18, 0, 0, -33.8, -8091.01, 26584.6)" xlink:href="#416f093b-93cd-42b0-a9ba-b37f56aefd10"/><linearGradient id="c2a24000-5b21-462e-b34a-fc8480dabc77" x1="303.91" y1="782.76" x2="303.91" y2="781.76" gradientTransform="matrix(27.18, 0, 0, -33.79, -8047.43, 26537.65)" xlink:href="#416f093b-93cd-42b0-a9ba-b37f56aefd10"/><linearGradient id="f234a4b3-2d6c-4f8e-a784-d38e972420eb" x1="298.66" y1="777.72" x2="298.66" y2="776.72" gradientTransform="matrix(18.71, 0, 0, -18.71, -5406.41, 14650.32)" xlink:href="#416f093b-93cd-42b0-a9ba-b37f56aefd10"/><linearGradient id="3f0283c4-5f14-45da-8ed5-5aa3c5b0aeb0" x1="298.66" y1="777.72" x2="298.66" y2="776.72" gradientTransform="matrix(18.71, 0, 0, -18.71, -5366.98, 14676.5)" xlink:href="#416f093b-93cd-42b0-a9ba-b37f56aefd10"/><linearGradient id="a3261b93-0107-4b31-a842-1bb1c515c3bb" x1="294.9" y1="775.2" x2="294.9" y2="774.2" gradientTransform="matrix(15.29, 0, 0, -15.29, -4311.43, 11999.11)" xlink:href="#416f093b-93cd-42b0-a9ba-b37f56aefd10"/><linearGradient id="7cadbd4a-d7b8-4897-a9e7-7b76627e7f02" x1="294.9" y1="775.2" x2="294.9" y2="774.2" gradientTransform="matrix(15.29, 0, 0, -15.29, -4349.98, 11939.77)" xlink:href="#416f093b-93cd-42b0-a9ba-b37f56aefd10"/><linearGradient id="d6f5ac8c-0549-4f4f-9fdd-1542c55e217e" x1="249.43" y1="744.75" x2="249.43" y2="743.75" gradientTransform="matrix(4.77, 0, 0, -4.77, -988.32, 3680.25)" xlink:href="#416f093b-93cd-42b0-a9ba-b37f56aefd10"/><linearGradient id="ff792a3a-6bea-4305-8800-f08cea49e143" x1="183.7" y1="700.72" x2="183.7" y2="699.72" gradientTransform="matrix(2.39, 0, 0, -2.39, -213.12, 2038.51)" xlink:href="#c503b52c-2ee3-412e-bbc1-1f2cb7bd7df8"/><linearGradient id="b3bb9990-e84f-45f8-8888-ba19e5825e87" x1="183.7" y1="700.72" x2="183.7" y2="699.72" gradientTransform="matrix(2.39, 0, 0, -2.39, -215.11, 2043.44)" xlink:href="#c503b52c-2ee3-412e-bbc1-1f2cb7bd7df8"/><linearGradient id="87b2e190-6741-4b7c-90fe-b5f5c1f42d98" x1="183.7" y1="700.72" x2="183.7" y2="699.72" gradientTransform="matrix(2.39, 0, 0, -2.39, -193.46, 2038.08)" xlink:href="#c503b52c-2ee3-412e-bbc1-1f2cb7bd7df8"/><linearGradient id="edd36d95-9b48-436d-9133-f9602fba5d7f" x1="183.7" y1="700.72" x2="183.7" y2="699.72" gradientTransform="matrix(2.39, 0, 0, -2.39, -195.49, 2043.01)" xlink:href="#c503b52c-2ee3-412e-bbc1-1f2cb7bd7df8"/><linearGradient id="5df16003-2ce7-4e58-b54f-9a0a1feb0d97" x1="292.37" y1="776.54" x2="292.37" y2="775.54" gradientTransform="matrix(13.62, 0, 0, -16.93, -3748.71, 13513.93)" xlink:href="#c503b52c-2ee3-412e-bbc1-1f2cb7bd7df8"/><linearGradient id="ec5f1075-3cd9-4dbf-a6a0-b32cddfb17dd" x1="292.38" y1="776.57" x2="292.38" y2="775.57" gradientTransform="matrix(13.62, 0, 0, -16.97, -3728.54, 13527.05)" xlink:href="#c503b52c-2ee3-412e-bbc1-1f2cb7bd7df8"/><linearGradient id="b65dc0f9-89d2-44a6-800f-343f3c7119f1" x1="281.89" y1="766.49" x2="281.89" y2="765.49" gradientTransform="matrix(9.37, 0, 0, -9.37, -2403.54, 7537.89)" xlink:href="#c503b52c-2ee3-412e-bbc1-1f2cb7bd7df8"/><linearGradient id="3651183b-2d99-4fff-9050-3e7f81b9403d" x1="281.88" y1="766.49" x2="281.88" y2="765.49" gradientTransform="matrix(9.37, 0, 0, -9.37, -2382.75, 7551.98)" xlink:href="#c503b52c-2ee3-412e-bbc1-1f2cb7bd7df8"/><linearGradient id="edc700bb-28e8-4206-975c-72667c4ce698" x1="274.38" y1="761.45" x2="274.38" y2="760.45" gradientTransform="matrix(7.66, 0, 0, -7.66, -1854.86, 6209.25)" xlink:href="#c503b52c-2ee3-412e-bbc1-1f2cb7bd7df8"/><linearGradient id="84d30da4-b27a-499a-a276-213605744d41" x1="274.38" y1="761.45" x2="274.38" y2="760.45" gradientTransform="matrix(7.66, 0, 0, -7.66, -1874.18, 6179.51)" xlink:href="#c503b52c-2ee3-412e-bbc1-1f2cb7bd7df8"/><linearGradient id="3ceee44f-b429-43f6-b6f8-51b1a6d42099" x1="183.7" y1="700.72" x2="183.7" y2="699.72" gradientTransform="matrix(2.39, 0, 0, -2.39, -190.15, 2041.92)" xlink:href="#c503b52c-2ee3-412e-bbc1-1f2cb7bd7df8"/><linearGradient id="84553943-c3d2-4ad7-8d50-9772d9a6a86d" x1="310.43" y1="785.56" x2="310.43" y2="784.56" gradientTransform="matrix(54.19, 8.58, 11.73, -74.07, -25038.2, 55890.55)" xlink:href="#cdd54ff4-6285-4fcc-8718-0bfac8b05017"/><linearGradient id="08ca0c9b-8759-4752-b123-13efc752d074" x1="302.16" y1="787.36" x2="302.16" y2="786.36" gradientTransform="matrix(25.59, -11.4, -16, -35.93, 4977.35, 32131.62)" xlink:href="#f545fd3c-53c4-4759-9556-e18b2e6dd195"/><linearGradient id="4a033b8d-12a2-4fa6-aa69-5fba11678727" x1="310.03" y1="787.18" x2="310.03" y2="786.18" gradientTransform="matrix(62.38, -27.78, -14.45, -32.45, -7853.52, 34513.1)" xlink:href="#f545fd3c-53c4-4759-9556-e18b2e6dd195"/><linearGradient id="f599b943-6e42-439a-8806-182f0251cf95" x1="302.1" y1="787.36" x2="302.1" y2="786.36" gradientTransform="matrix(25.47, -11.34, -16, -35.93, 5045.21, 32101.4)" xlink:href="#f545fd3c-53c4-4759-9556-e18b2e6dd195"/><linearGradient id="658495fe-c75f-4988-9212-373063cda43a" x1="-58.4" y1="724.42" x2="-58.4" y2="724.42" gradientTransform="matrix(0.91, -0.41, -0.41, -0.91, 478.08, 1032.49)" xlink:href="#f545fd3c-53c4-4759-9556-e18b2e6dd195"/><linearGradient id="4c959cf5-ecc2-47b4-96d0-d561dce126f8" x1="287.74" y1="727.16" x2="287.74" y2="726.16" gradientTransform="matrix(4.74, 2.96, 2.96, -4.74, -3133.55, 2930.68)" xlink:href="#cdd54ff4-6285-4fcc-8718-0bfac8b05017"/><linearGradient id="e8ea015f-8d72-4e8e-a727-4b69b62ed1a1" x1="309.95" y1="776.63" x2="309.95" y2="775.63" gradientTransform="matrix(23.71, 14.82, 14.82, -23.71, -18504.34, 14103.92)" xlink:href="#cdd54ff4-6285-4fcc-8718-0bfac8b05017"/><linearGradient id="e34ee9ed-4968-4a7f-84d9-259ded80c296" x1="306.02" y1="747.63" x2="306.02" y2="746.63" gradientTransform="matrix(13.9, 8.69, 4.43, -7.09, -7217.23, 2934.99)" xlink:href="#cdd54ff4-6285-4fcc-8718-0bfac8b05017"/><linearGradient id="93e9ea5f-f7db-49b7-a61a-2c971527e39c" x1="312.03" y1="780.17" x2="312.03" y2="779.17" gradientTransform="matrix(37.94, 23.71, 20.75, -33.2, -27668.15, 18777.72)" xlink:href="#cdd54ff4-6285-4fcc-8718-0bfac8b05017"/><linearGradient id="4ee1662d-87ed-49b9-bbea-76a6f9cb118a" x1="307.57" y1="764.26" x2="307.57" y2="763.26" gradientTransform="matrix(16.6, 10.37, 7.41, -11.86, -10400.61, 6113.33)" xlink:href="#cdd54ff4-6285-4fcc-8718-0bfac8b05017"/><linearGradient id="749a4a43-3374-455d-97fb-472270f729d0" x1="306.25" y1="665.47" x2="306.25" y2="664.47" gradientTransform="matrix(14.23, 8.89, 1.48, -2.37, -4987.25, -880.98)" xlink:href="#cdd54ff4-6285-4fcc-8718-0bfac8b05017"/><linearGradient id="1650d84f-78a2-4460-88dd-b231f7789e2c" x1="305.95" y1="747.65" x2="305.95" y2="746.65" gradientTransform="matrix(13.78, 8.61, 4.43, -7.09, -7178.36, 2953.76)" xlink:href="#cdd54ff4-6285-4fcc-8718-0bfac8b05017"/><linearGradient id="66ccc416-75da-46a9-a467-111a997827aa" x1="310.87" y1="781.27" x2="310.87" y2="780.27" gradientTransform="matrix(28.46, 17.79, 23.71, -37.94, -26972.72, 24403.05)" xlink:href="#cdd54ff4-6285-4fcc-8718-0bfac8b05017"/><linearGradient id="c86d734c-253a-48be-9b34-8c6a4e2428e3" x1="260.04" y1="764.26" x2="260.04" y2="763.26" gradientTransform="matrix(2.37, 1.48, 7.41, -11.86, -5876.69, 8977.06)" xlink:href="#cdd54ff4-6285-4fcc-8718-0bfac8b05017"/><linearGradient id="a5d69b7c-7846-47f9-ac0a-665b795e1a69" x1="312.03" y1="764.26" x2="312.03" y2="763.26" gradientTransform="matrix(37.94, 23.71, 7.41, -11.86, -17134.75, 1924.28)" xlink:href="#cdd54ff4-6285-4fcc-8718-0bfac8b05017"/><linearGradient id="2272d6cc-255e-4471-aeed-d46881ea856c" x1="311.53" y1="773.54" x2="311.53" y2="772.54" gradientTransform="matrix(33.2, 20.75, 11.86, -18.97, -19104.08, 8478.52)" xlink:href="#cdd54ff4-6285-4fcc-8718-0bfac8b05017"/><linearGradient id="67681af6-05b8-42fd-a9f0-4f7c62d75650" x1="311.53" y1="665.47" x2="311.53" y2="664.47" gradientTransform="matrix(33.2, 20.75, 1.48, -2.37, -10915.86, -4622.64)" xlink:href="#cdd54ff4-6285-4fcc-8718-0bfac8b05017"/><linearGradient id="838be3b3-2fc1-4e76-adf1-50b78b4f9eb5" x1="296.99" y1="764.26" x2="296.99" y2="763.26" gradientTransform="matrix(7.11, 4.45, 7.41, -11.86, -7393.63, 7992.69)" xlink:href="#cdd54ff4-6285-4fcc-8718-0bfac8b05017"/><linearGradient id="9746ac8f-4d89-480e-a842-c484f20909a2" x1="295.59" y1="738.1" x2="295.59" y2="737.1" gradientTransform="matrix(13.8, 2.19, 0.79, -5, -4297.42, 3441.7)" xlink:href="#27087068-caad-4155-8e8b-492a50e4aa14"/><linearGradient id="b6eeb7b1-bcdc-4882-9ca4-f20a68f2ca43" x1="311.75" y1="785.01" x2="311.75" y2="784.01" gradientTransform="matrix(73.26, 11.6, 10.09, -63.73, -30397.6, 46809.37)" xlink:href="#27087068-caad-4155-8e8b-492a50e4aa14"/><linearGradient id="a45f7c9b-e9c3-40fe-888d-bde60cd63dce" x1="311.09" y1="783.96" x2="311.09" y2="782.96" gradientTransform="matrix(54.7, 14.66, 14.66, -54.67, -28012.43, 38319.29)" xlink:href="#416f093b-93cd-42b0-a9ba-b37f56aefd10"/><linearGradient id="943c2a1b-eca0-44b0-86c7-f3b8a6e404d0" x1="310.17" y1="785.48" x2="310.17" y2="784.48" gradientTransform="matrix(59.08, 0, 0, -59.87, -17813.02, 47362.19)" xlink:href="#416f093b-93cd-42b0-a9ba-b37f56aefd10"/><linearGradient id="05e58029-df29-49de-a579-b057c7ff94a2" x1="294.5" y1="774.87" x2="294.5" y2="773.87" gradientTransform="matrix(15, 0, 0, -14.94, -4153.52, 11591.42)" xlink:href="#cdd54ff4-6285-4fcc-8718-0bfac8b05017"/><linearGradient id="d6a50695-c504-42bc-844a-5c67d1b7624a" x1="288.08" y1="770.55" x2="288.08" y2="769.55" gradientTransform="matrix(11.49, 0, 0, -11.44, -3058.95, 8828.69)" xlink:href="#cdd54ff4-6285-4fcc-8718-0bfac8b05017"/><linearGradient id="456464f6-8920-4ef2-8da4-f3b532eb71a7" x1="281.54" y1="766.15" x2="281.54" y2="765.15" gradientTransform="matrix(9.28, 0, 0, -9.24, -2350.97, 7083.13)" xlink:href="#cdd54ff4-6285-4fcc-8718-0bfac8b05017"/><linearGradient id="14b7c1da-21cb-4b0f-b9a4-d1457f5b86e1" x1="311.44" y1="787.19" x2="311.44" y2="786.19" gradientTransform="matrix(85.29, -22.87, -17.5, -65.26, -12125.91, 58806.15)" xlink:href="#f545fd3c-53c4-4759-9556-e18b2e6dd195"/><linearGradient id="2bddaa98-59e2-4b46-b6a0-11f99d8bd22f" x1="313.12" y1="781.99" x2="313.12" y2="780.99" gradientTransform="matrix(63.53, 35.22, 23.33, -42.08, -37299.98, 22251.07)" xlink:href="#ff110837-b46a-4863-b440-8f819c0fa9f8"/><linearGradient id="e4abfbb0-4e5e-4602-94a4-48f5f92e2942" x1="313.64" y1="783.54" x2="313.64" y2="782.54" gradientTransform="matrix(81.51, 45.18, 29.92, -53.99, -48940.42, 28382.43)" xlink:href="#416f093b-93cd-42b0-a9ba-b37f56aefd10"/><linearGradient id="d747fd62-11a2-4f26-83ed-2ac97601d933" x1="302.88" y1="783.47" x2="302.88" y2="782.47" gradientTransform="matrix(27.19, -5.29, -5.07, -26.08, -3847.89, 22208.84)" xlink:href="#cdd54ff4-6285-4fcc-8718-0bfac8b05017"/><linearGradient id="075b0d89-ad5e-467e-8ddf-56534de8fb14" x1="226.62" y1="765.29" x2="226.62" y2="764.29" gradientTransform="matrix(3.86, -0.75, -1.18, -6.09, 458.04, 5001.54)" xlink:href="#cdd54ff4-6285-4fcc-8718-0bfac8b05017"/><linearGradient id="dd8966be-fd7c-41f7-8b87-4f51353e0b7d" x1="307.99" y1="778.16" x2="307.99" y2="777.16" gradientTransform="matrix(45.67, -8.88, -2.59, -13.31, -11640.64, 13252.17)" xlink:href="#cdd54ff4-6285-4fcc-8718-0bfac8b05017"/><linearGradient id="d6654d21-76c0-4c43-98f9-4ad4e43449cf" x1="304.98" y1="781.93" x2="304.98" y2="780.93" gradientTransform="matrix(32.6, -6.34, -3.97, -20.42, -6430.9, 18035.98)" xlink:href="#cdd54ff4-6285-4fcc-8718-0bfac8b05017"/><linearGradient id="64f9addb-0550-4310-9635-c70f340d66e0" x1="312.76" y1="778.96" x2="312.76" y2="777.96" gradientTransform="matrix(74.34, 28.54, 11.06, -28.82, -31765.13, 13703.16)" xlink:href="#1e983923-1865-477f-8c0e-457f3ffb2356"/><linearGradient id="5f547854-2191-489e-8b6a-8d3532128423" x1="312.69" y1="724.86" x2="312.69" y2="723.86" gradientTransform="matrix(72.7, 27.91, 1.73, -4.51, -23896.42, -5246.85)" xlink:href="#1e983923-1865-477f-8c0e-457f3ffb2356"/><linearGradient id="9ac234c2-66af-4019-bd33-4506b5dc7f7e" x1="312.55" y1="763.14" x2="312.55" y2="762.14" gradientTransform="matrix(96.66, 11.87, 1.17, -9.51, -30869.3, 3806.63)" xlink:href="#ff110837-b46a-4863-b440-8f819c0fa9f8"/><linearGradient id="4efba8cb-b130-40ef-a852-5359d9046efc" x1="311.93" y1="784.13" x2="311.93" y2="783.13" gradientTransform="matrix(79.77, 9.79, 6.2, -50.53, -29506.3, 36767.11)" xlink:href="#ff110837-b46a-4863-b440-8f819c0fa9f8"/><linearGradient id="1c5b07db-7504-49ea-bd00-abb6df432d91" x1="312.73" y1="780.17" x2="312.73" y2="779.17" gradientTransform="matrix(86.99, 23.32, 8.37, -31.21, -32899.87, 17070.48)" xlink:href="#1e983923-1865-477f-8c0e-457f3ffb2356"/><linearGradient id="32d24963-eb20-4796-b09e-b0b10dc06ee6" x1="312.01" y1="766.96" x2="312.01" y2="765.96" gradientTransform="matrix(69.04, 18.51, 3.35, -12.5, -23280.75, 3826.23)" xlink:href="#1e983923-1865-477f-8c0e-457f3ffb2356"/><linearGradient id="f22061a3-2ac6-4623-a825-631c3e7a9d7f" x1="311.4" y1="742.9" x2="311.4" y2="741.9" gradientTransform="matrix(58.77, 15.76, 1.6, -5.98, -18664.23, -427.21)" xlink:href="#1e983923-1865-477f-8c0e-457f3ffb2356"/><linearGradient id="bc058c24-0f45-4675-82fb-2e3b1f0808c6" x1="276.73" y1="776.21" x2="276.73" y2="775.21" gradientTransform="matrix(6.22, 1.67, 5.78, -21.55, -5402.43, 16303.6)" xlink:href="#1e983923-1865-477f-8c0e-457f3ffb2356"/><linearGradient id="66b9be7d-78f8-47b0-8732-053891cf1aed" x1="276.73" y1="776.21" x2="276.73" y2="775.21" gradientTransform="matrix(6.22, 1.67, 5.78, -21.55, -5388.46, 16307.33)" xlink:href="#1e983923-1865-477f-8c0e-457f3ffb2356"/><linearGradient id="766778a9-aafe-416d-ac20-84bb5cfe8115" x1="276.73" y1="776.2" x2="276.73" y2="775.2" gradientTransform="matrix(6.22, 1.67, 5.77, -21.53, -5370.53, 16297.22)" xlink:href="#1e983923-1865-477f-8c0e-457f3ffb2356"/><linearGradient id="c31ebd1f-cc04-461b-ac0c-c5f7939b52ef" x1="276.73" y1="776.2" x2="276.73" y2="775.2" gradientTransform="matrix(6.22, 1.67, 5.77, -21.53, -5356.26, 16301.04)" xlink:href="#1e983923-1865-477f-8c0e-457f3ffb2356"/></defs><title>hero</title><rect x="1527.7" y="287.9" width="6.9" height="272.11" style="fill:#8890a6"/><path d="M1598.4,324.2c.4,95.2-66.5,172.6-66.5,172.6s-67.7-76.8-68.1-172,66.5-172.6,66.5-172.6S1597.9,229.1,1598.4,324.2Z" transform="translate(-0.3 -1.6)" style="fill:#8890a6"/><rect x="1393.3" y="415.9" width="3.5" height="139.95" style="fill:#8890a6"/><path d="M1429.8,435.4c.2,48.9-34.2,88.8-34.2,88.8s-34.8-39.5-35.1-88.5,34.2-88.8,34.2-88.8S1429.5,386.5,1429.8,435.4Z" transform="translate(-0.3 -1.6)" style="fill:#8890a6"/><ellipse cx="1466.6" cy="559.8" rx="96" ry="14.7" style="fill:#8890a6"/><path d="M1474.8,218.5c-8.1-13.7-24.2-14.4-24.2-14.4s-15.7-2-25.8,18.9-22.3,38.4-2,42.9l3.6-11.3,2.3,12.2a82.6,82.6,0,0,0,8.6.1c21.7-.7,42.3.2,41.7-7.5C1478.1,249,1482.6,231.7,1474.8,218.5Z" transform="translate(-0.3 -1.6)" style="fill:#fff"/><path d="M1445.5,244.4s10.5,14.7,4.2,26.6,14.7,24.5,14.7,24.5l15.5-33.6s-18.3-11.9-13.4-23.1Z" transform="translate(-0.3 -1.6)" style="fill:#fbbebe"/><circle cx="1452.3" cy="230.8" r="18.2" style="fill:#fbbebe"/><path d="M1389.5,253.5l15.2-19.6s5.4-20.6,13.1-19.6-3,24.7-3,24.7l-15.2,21.8Z" transform="translate(-0.3 -1.6)" style="fill:#fbbebe"/><path d="M1466.5,514.8l4.9,26,10.6,2.8-2.8-30.9Z" transform="translate(-0.3 -1.6)" style="fill:#fbbebe"/><path d="M1572.3,486.8l19,25.9,7.7,3.5,6.3-10.5-18.9-24.5Z" transform="translate(-0.3 -1.6)" style="fill:#fbbebe"/><path d="M1462.3,284.3l-11.6-15.4s-22.7,4.2-24.8,6.3,5.6,40.6,5.6,40.6,1.4,10.6,7.7,16.2l6.3,4.2,51.9-10.6,1.9-23a60.3,60.3,0,0,0-15.9-46.3h0l-9.1,1.2Z" transform="translate(-0.3 -1.6)" style="fill:#575a89"/><path d="M1428.7,276.6l-3.5-1.4-16.1-1.4s-5.6-1.4-4.2-4.2,2.8-3.5,0-4.2-3.5-1.4-2.8-3.5,4.9-6.3,4.9-6.3l-11.9-9.8a11.1,11.1,0,0,0-1.7,1.3c-5.9,4.8-24.6,22.1-10.9,39.3,16.1,20.3,35,32.3,50.4,28.1Z" transform="translate(-0.3 -1.6)" style="fill:#575a89"/><path d="M1444.1,332.7v9.8s-6.3,11.9-4.2,23.1,2.8,16.8,2.8,16.8a95.2,95.2,0,0,0,4.9,28c4.9,14-11.2,105.8,9.1,107.2s31.6,2.8,37.9-4.2-10.5-127.5-10.5-127.5,57.4,119.8,69.3,114.9,42.1-16.1,38.6-22.4S1500.2,332,1500.2,332l-2.8-6.3Z" transform="translate(-0.3 -1.6)" style="fill:url(#416f093b-93cd-42b0-a9ba-b37f56aefd10)"/><path d="M1477.8,535.9s-11.3-.7-11.3,2.8-5.6,15.4-5.6,15.4-4.2,14,7,12.6,18.3-14,18.3-14l-2.8-13.3Z" transform="translate(-0.3 -1.6)" style="fill:#fff"/><path d="M1594.8,511.3s-9.8-6.3-9.1-2.1,1.4,15.4,6.3,16.1,19.6,4.9,20.3,6.4,17.5,7,17.5-2.1-10.5-16.2-10.5-16.2l-11.9-9.1s-7.7-.7-9.1,4.2S1594.8,511.3,1594.8,511.3Z" transform="translate(-0.3 -1.6)" style="fill:#fff"/><circle cx="1452.3" cy="202.6" r="11.6" style="fill:#fff"/><path d="M1439.7,201.1a11.6,11.6,0,0,1,10.4-11.5,11.6,11.6,0,0,0-2.5,23.1,10.4,10.4,0,0,0,2.5,0A11.6,11.6,0,0,1,1439.7,201.1Z" transform="translate(-0.3 -1.6)" style="fill:#fff"/><path d="M1471.2,217.2l-15.9-8.4-21.9,3.5-4.6,20,11.3-.4,3.2-7.4v7.3l5.2-.2,3-11.8,1.9,12.5,18.6-.4Z" transform="translate(-0.3 -1.6)" style="fill:#fff"/><path d="M1470.3,334.3l-24.6.6s-20.9,4.1-19.7-4.3,21.6-5.5,21.6-5.5l22.3-3.4Z" transform="translate(-0.3 -1.6)" style="fill:#fbbebe"/><path d="M1489.7,255.1a5.1,5.1,0,0,1,5.7,3.6c4.8,15.1,19.6,65.7,4.9,72.7-17.3,8.1-29.9,7.8-29.9,7.8l-6.8-16.7,6.2-5.7,6.6-42.3,3.1-17.9Z" transform="translate(-0.3 -1.6)" style="fill:#575a89"/><path d="M1485.1,283.3l-2.8,28-24.5,10.5,27.3-6.3Z" transform="translate(-0.3 -1.6)" style="opacity:0.4000000059604645;isolation:isolate"/><path d="M1352.9,190.7h0a32.6,32.6,0,0,1,19.1,14l2.3,3.5h.1l40.2,11.8a2.9,2.9,0,0,1,2,3.6l-3.1,11.4a2.9,2.9,0,0,1-3.6,2.1h0L1369.7,226h0l-4.1,1.5a36.2,36.2,0,0,1-23.2.8h0Z" transform="translate(-0.3 -1.6)" style="fill:#575a89"/><ellipse cx="1390.8" cy="222.6" rx="2.5" ry="4.6" transform="translate(786.3 1493.3) rotate(-73.7)" style="fill:#575a89"/><circle cx="1392.9" cy="221.8" r="1.7" style="fill:#3f3d56"/><ellipse cx="1347.7" cy="209.7" rx="19.7" ry="8.9" transform="translate(732.8 1425.6) rotate(-72.1)" style="fill:#fe340e"/><path d="M1355,212c3.2-9.9,2.3-19.2-1.9-21.2h.7c4.7,1.6,5.8,11.2,2.4,21.5s-9.8,17.5-14.5,16l-.5-.2C1345.8,228.8,1351.8,221.8,1355,212Z" transform="translate(-0.3 -1.6)" style="opacity:0.4000000059604645;isolation:isolate"/><path d="M1353.4,190.8,1262.1,120a610.1,610.1,0,0,1-46.4-40.2c-26-24.8-61.3-44.6-102.4-55.2-99.9-25.6-179,19.8-215,86.6-55,102-97.2,267.6,146.7,179.4,53.3-19.2,107.3-21.3,148.3-31.4l148.2-30.6Z" transform="translate(-0.3 -1.6)" style="fill:url(#ff110837-b46a-4863-b440-8f819c0fa9f8)"/><circle cx="1079.2" cy="65.1" r="4.9" style="fill:#f2f2f2"/><path d="M1174.7,78.1h-1.3V76.8h-.2v1.3h-1.3v.2h1.3v1.3h.2V78.3h1.3Z" transform="translate(-0.3 -1.6)" style="fill:#f2f2f2"/><path d="M1302.9,184.6h-1.3v-1.3h-.2v1.3h-1.3v.2h1.3v1.3h.2v-1.3h1.3Z" transform="translate(-0.3 -1.6)" style="fill:#f2f2f2"/><path d="M1293.8,217.5h-1.3v-1.3h-.2v1.3H1291v.3h1.3V219h.2v-1.2h1.3Z" transform="translate(-0.3 -1.6)" style="fill:#f2f2f2"/><path d="M902.1,245.6h-1.2v-1.3h-.3v1.3h-1.3v.2h1.3v1.3h.3v-1.3h1.2Z" transform="translate(-0.3 -1.6)" style="fill:#f2f2f2"/><path d="M958.2,92.8h-1.3V91.5h-.2v1.3h-1.3v.3h1.3v1.2h.2V93.1h1.3Z" transform="translate(-0.3 -1.6)" style="fill:#f2f2f2"/><path d="M1176.1,223.1h-1.3v-1.2h-.2v1.2h-1.3v.3h1.3v1.3h.2v-1.3h1.3Z" transform="translate(-0.3 -1.6)" style="fill:#f2f2f2"/><path d="M1042.3,48H1041V46.7h-.3V48h-1.2v.2h1.2v1.3h.3V48.2h1.3Z" transform="translate(-0.3 -1.6)" style="fill:#f2f2f2"/><path d="M1042.8,148.8l-1.6.3c.5,3.2.9,6.4,1.1,9.6h1.6C1043.7,155.3,1043.3,152.1,1042.8,148.8Z" transform="translate(-0.3 -1.6)" style="fill:#e6e6e6"/><path d="M1038.4,129.7l-1.5.5c.9,3,1.7,6.2,2.4,9.3l1.6-.3C1040.2,136,1039.3,132.8,1038.4,129.7Z" transform="translate(-0.3 -1.6)" style="fill:#e6e6e6"/><path d="M1031.5,111.3l-1.5.7c1.3,2.9,2.6,5.9,3.7,8.9l1.6-.5C1034.1,117.3,1032.8,114.3,1031.5,111.3Z" transform="translate(-0.3 -1.6)" style="fill:#e6e6e6"/><path d="M1022.1,94.1l-1.4.9c1.7,2.7,3.4,5.5,4.9,8.3l1.5-.8C1025.5,99.7,1023.8,96.8,1022.1,94.1Z" transform="translate(-0.3 -1.6)" style="fill:#e6e6e6"/><path d="M1010.4,78.3l-1.2,1c2.1,2.5,4.1,5.1,6,7.7l1.3-1C1014.6,83.4,1012.5,80.8,1010.4,78.3Z" transform="translate(-0.3 -1.6)" style="fill:#e6e6e6"/><path d="M996.7,64.2l-1.1,1.2c2.4,2.2,4.8,4.5,7,6.8l1.2-1.2Z" transform="translate(-0.3 -1.6)" style="fill:#e6e6e6"/><path d="M981.2,52.2l-.9,1.3c2.7,1.8,5.3,3.7,7.9,5.7l.9-1.3C986.6,55.9,983.9,54,981.2,52.2Z" transform="translate(-0.3 -1.6)" style="fill:#e6e6e6"/><path d="M967.1,43.8v1.8l4.9,2.8.8-1.4Z" transform="translate(-0.3 -1.6)" style="fill:#e6e6e6"/><path d="M1042.9,168.7h1.6v4.9h-1.6Z" transform="translate(-0.3 -1.6)" style="fill:#e6e6e6"/><path d="M948.2,286.9l-1.6.2c.5,3.2.9,6.5,1.2,9.7l1.6-.2C949.1,293.4,948.7,290.1,948.2,286.9Z" transform="translate(-0.3 -1.6)" style="fill:#e6e6e6"/><path d="M943.8,267.7l-1.5.5c.9,3.1,1.7,6.2,2.4,9.4l1.6-.4C945.6,274,944.8,270.8,943.8,267.7Z" transform="translate(-0.3 -1.6)" style="fill:#e6e6e6"/><path d="M936.9,249.3l-1.5.7c1.4,3,2.6,6,3.8,9l1.5-.6C939.5,255.4,938.2,252.3,936.9,249.3Z" transform="translate(-0.3 -1.6)" style="fill:#e6e6e6"/><path d="M927.5,232.1l-1.4.9c1.8,2.7,3.4,5.5,5,8.3l1.4-.7C930.9,237.7,929.2,234.9,927.5,232.1Z" transform="translate(-0.3 -1.6)" style="fill:#e6e6e6"/><path d="M915.8,216.3l-1.2,1.1c2.1,2.4,4.1,5,6,7.6l1.3-1C920,221.4,917.9,218.8,915.8,216.3Z" transform="translate(-0.3 -1.6)" style="fill:#e6e6e6"/><path d="M902.1,202.3l-1.1,1.2c2.4,2.1,4.8,4.4,7,6.7l1.2-1.1C906.9,206.7,904.5,204.5,902.1,202.3Z" transform="translate(-0.3 -1.6)" style="fill:#e6e6e6"/><path d="M886.6,190.2l-.9,1.3c2.7,1.8,5.3,3.8,7.9,5.7l1-1.2C892,194,889.3,192,886.6,190.2Z" transform="translate(-0.3 -1.6)" style="fill:#e6e6e6"/><path d="M872.5,181.8v1.9c1.7.8,3.3,1.8,4.9,2.7l.9-1.4Z" transform="translate(-0.3 -1.6)" style="fill:#e6e6e6"/><path d="M948.3,306.7h1.6v4.8h-1.6Z" transform="translate(-0.3 -1.6)" style="fill:#e6e6e6"/><path d="M1271.9,217.5l-1.6.3c.5,3.1.9,6.4,1.2,9.6h1.6C1272.8,224,1272.4,220.7,1271.9,217.5Z" transform="translate(-0.3 -1.6)" style="fill:#e6e6e6"/><path d="M1267.5,198.4l-1.5.4c.9,3.1,1.8,6.3,2.5,9.4l1.5-.3C1269.3,204.7,1268.5,201.5,1267.5,198.4Z" transform="translate(-0.3 -1.6)" style="fill:#e6e6e6"/><path d="M1260.6,180l-1.5.7c1.4,2.9,2.6,5.9,3.8,8.9l1.5-.6C1263.2,186,1262,182.9,1260.6,180Z" transform="translate(-0.3 -1.6)" style="fill:#e6e6e6"/><path d="M1251.2,162.8l-1.4.8c1.8,2.7,3.4,5.6,5,8.4l1.4-.8C1254.6,168.3,1252.9,165.5,1251.2,162.8Z" transform="translate(-0.3 -1.6)" style="fill:#e6e6e6"/><path d="M1239.5,147l-1.2,1c2.1,2.5,4.1,5,6,7.6l1.3-.9A93.8,93.8,0,0,0,1239.5,147Z" transform="translate(-0.3 -1.6)" style="fill:#e6e6e6"/><path d="M1225.8,132.9l-1.1,1.2c2.4,2.2,4.8,4.4,7.1,6.7l1.1-1.1Z" transform="translate(-0.3 -1.6)" style="fill:#e6e6e6"/><path d="M1210.3,120.8l-.9,1.4c2.7,1.8,5.3,3.7,7.9,5.7l1-1.3C1215.7,124.6,1213,122.7,1210.3,120.8Z" transform="translate(-0.3 -1.6)" style="fill:#e6e6e6"/><path d="M1196.2,112.5v1.8l5,2.7.8-1.4Z" transform="translate(-0.3 -1.6)" style="fill:#e6e6e6"/><path d="M1272,237.3h1.6v4.9H1272Z" transform="translate(-0.3 -1.6)" style="fill:#e6e6e6"/><path d="M960.5,157.4h-1.2v-1.2h-.2v1.2h-1.2v.2h1.2v1.2h.2v-1.2h1.2Z" transform="translate(-0.3 -1.6)" style="fill:#f2f2f2"/><path d="M946.8,229.1h-1.1v-1.2h-.3v1.2h-1.2v.3h1.2v1.1h.3v-1.1h1.1Z" transform="translate(-0.3 -1.6)" style="fill:#f2f2f2"/><path d="M906.7,292h-1.2v-1.2h-.3V292h-1.1v.2h1.1v1.2h.3v-1.2h1.2Z" transform="translate(-0.3 -1.6)" style="fill:#f2f2f2"/><path d="M1018.4,212.3a86.2,86.2,0,1,1,40,32,27.9,27.9,0,1,1-40-32Z" transform="translate(-0.3 -1.6)" style="fill:#fff"/><path d="M1089.3,115c19.8,0,33.3,11,33.3,26.7,0,10.4-5,17.6-14.7,23.4s-12.3,9.2-12.3,15.9h0a4.2,4.2,0,0,1-4.2,4.2h-10a4.2,4.2,0,0,1-4.2-4v-.6c-.9-10.8,2.9-17.5,12.4-23.1s12.6-8.7,12.6-15.2-6.3-11.3-14.1-11.3c-6,0-10.7,2.9-12.9,7.6a9,9,0,0,1-8.4,5.3h0a9.1,9.1,0,0,1-9.2-9.1,9,9,0,0,1,1-4.2C1063.7,121.1,1074.3,115,1089.3,115Zm-13.8,90.2a11.3,11.3,0,1,1,11.7,10.8h-.4a10.9,10.9,0,0,1-11.3-10.7Z" transform="translate(-0.3 -1.6)" style="fill:url(#6dd48f5d-e353-4a99-a7fd-99934c9c9b6a)"/><path d="M617.9,89.5l-4.2-2.4-4.3,3.5V76.2l-12,6.7,16,28.7,20.4-11.3L618,71.6Z" transform="translate(-0.3 -1.6)" style="fill:url(#cdd54ff4-6285-4fcc-8718-0bfac8b05017)"/><path d="M636.3,43.5,622.8,51a20.1,20.1,0,0,0,1.4-2.5c1.4-3,1.5-5.9.3-8.1s-3.2-3.9-5.1-4.3a7.6,7.6,0,0,0-5.5.9,9.9,9.9,0,0,0-4.2,4.4c-1.4,2.7-1.3,6.9-1.2,10.1v.4c-1.1-1-2.4-1.9-3.6-2.8a17.9,17.9,0,0,0-6-1.7,10.2,10.2,0,0,0-5.9,1.2,7.7,7.7,0,0,0-3.7,4.6c-.7,1.9-.1,5,1,7a8.3,8.3,0,0,0,2.8,2.8,12.3,12.3,0,0,0,5.9,1.2l-12.5,6.9,6.4,11.4,23.5-13L610,58.1l2.9-1.6,6.3,11.4,23.5-13ZM597.9,60.1a5.3,5.3,0,0,1-2.8-.7,4.7,4.7,0,0,1-2-5,3.8,3.8,0,0,1,1.8-2.3h0a5.9,5.9,0,0,1,3.7-.7c2.1.1,5.1,2.1,7.3,3.6a17.4,17.4,0,0,1,2.9,2.5c-4.9,2.1-8.5,2.8-10.9,2.6Zm14.7-11.4c.1-1.6,0-4.2.7-5.5a5.9,5.9,0,0,1,2.5-2.7h0a4.5,4.5,0,0,1,2.8-.5,3.7,3.7,0,0,1,2,1.7,5.7,5.7,0,0,1,0,5.1c-1.1,2.2-3.4,5.2-7.5,8.6A16.7,16.7,0,0,1,612.6,48.7Z" transform="translate(-0.3 -1.6)" style="fill:url(#d60f5319-b646-4f09-b24e-f5a8751b2a2e)"/><path d="M640.8,73.1l-5.1,1.8-.2,4.9-15.1-9.3L636.2,99l20.3-11.3L640.6,59l-12,6.7Z" transform="translate(-0.3 -1.6)" style="fill:url(#782f297b-7c5d-46c3-9be1-8e16307aa24a)"/><path d="M620.3,70.3" transform="translate(-0.3 -1.6)" style="fill:url(#782653d5-9423-4334-8c16-bb25bbd5179a)"/><path d="M778.2,132.1a1.2,1.2,0,0,0,1.6,0,1.8,1.8,0,0,1,2.7,0,4.2,4.2,0,0,0,5.9,0,1.1,1.1,0,0,0-1.5-1.7h-.1a1.8,1.8,0,0,1-2.7,0,4.1,4.1,0,0,0-5.9.1A1.1,1.1,0,0,0,778.2,132.1Z" transform="translate(-0.3 -1.6)" style="fill:url(#f545fd3c-53c4-4759-9556-e18b2e6dd195)"/><path d="M783.9,126.4a1.2,1.2,0,0,0,1.6,0,1.8,1.8,0,0,1,2.7,0h0a4.2,4.2,0,0,0,5.9-.1,1.1,1.1,0,0,0,.1-1.5,1.1,1.1,0,0,0-1.6-.1h-.1a2,2,0,0,1-2.7,0,4.2,4.2,0,0,0-5.9,0h0A1.2,1.2,0,0,0,783.9,126.4Z" transform="translate(-0.3 -1.6)" style="fill:url(#8458a9d3-1017-4819-93ee-dcb93763e104)"/><path d="M789.6,120.6a1,1,0,0,0,1.6,0,1.5,1.5,0,0,1,2,0,3.6,3.6,0,0,0,5.1,0h0a1.1,1.1,0,0,0,.1-1.6,1.1,1.1,0,0,0-1.5,0h-.1a1.7,1.7,0,0,1-2.1,0h0a3.6,3.6,0,0,0-5.1,0A1.1,1.1,0,0,0,789.6,120.6Z" transform="translate(-0.3 -1.6)" style="fill:url(#3ca475fc-5101-40da-bc13-f26e7c81e91f)"/><path d="M789.6,137.3a76,76,0,0,0,12.3-17,8,8,0,0,0,.5-5.7,4.4,4.4,0,0,0-4.7-3.2c-3.7.1-8,3.5-11.5,6.3l-.5.4a6.5,6.5,0,0,0-1.2-5.4,5.4,5.4,0,0,0-1.9-5.5.4.4,0,0,1,.1-.3,3.8,3.8,0,0,0-1.7-3.8,4.6,4.6,0,0,0-2.3-.6,4.7,4.7,0,0,0-1.5-1.3,4,4,0,0,0-4.9,1.1,5.1,5.1,0,0,0-5.4,2.6,5.4,5.4,0,0,0-6.4,4.3,1.5,1.5,0,0,0-.1.7,4.2,4.2,0,0,0-2.5,3.7,5.5,5.5,0,0,0-3-3.8,1.1,1.1,0,0,0-1.5.5,1.2,1.2,0,0,0,.6,1.5h0a3.7,3.7,0,0,1,1.8,2.5c-1.8-.3-4-.5-5.7.7a5.7,5.7,0,0,0-2,3.5,1.6,1.6,0,0,0-.7.9l-10,24.7a6.3,6.3,0,0,0,3,8.1l27.7,13.5a6.3,6.3,0,0,0,8.2-2.6l13.8-23.9a1.4,1.4,0,0,0,.1-1.1A1.6,1.6,0,0,0,789.6,137.3Zm-4.5-15.9,2.5-2c3-2.4,7.2-5.8,10.1-5.8a2.2,2.2,0,0,1,2.6,1.7,5.6,5.6,0,0,1-.4,4,76.1,76.1,0,0,1-12,16.7l-1,1h-2.2a3.6,3.6,0,0,1-3.2-1.5l-.5-.8a6.1,6.1,0,0,0-2.2-2,8.1,8.1,0,0,0-3.1-.6h-.9a2.2,2.2,0,0,1-1.4-.2c0-.1.1-.1.1-.2l2.3-2.3a3,3,0,0,1,.8-.8l1.9-1.8.8-.7A51.8,51.8,0,0,1,785.1,121.4ZM768,127.5h-.4l-1.1-.2.3-.9.8.4a8.7,8.7,0,0,0,5.5.7l1.8-.2-.7.6-.4.5-2.2,2.2-.4-.7a7.4,7.4,0,0,0-2.3-2l-.7-.3Zm4.9-14.1a.5.5,0,0,1-.3-.6.4.4,0,0,1,.5-.3h0l6.2,1.5a.4.4,0,0,1,.2.5l-.2.3c-.1,0-.2.1-.3,0Zm-1.5,4.2.5-.3.4-.2a3.1,3.1,0,0,0,.9-1.4l4.5,1.1v.4a2.3,2.3,0,0,0,.4,1.6l.4.5c0,.1.2.2.2.4l.2.2c.1.1.2.2.2.3l.2.4a.5.5,0,0,1,.2.4c.1.1.1.2.2.4s.1.2.1.4a1.9,1.9,0,0,1,.1.8l-2.5,2.2-.4.4a10.4,10.4,0,0,0-4.3,0,6.6,6.6,0,0,1-5.4-1.2l.8-3c.5-2.1,1.9-2.8,3.3-3.4Zm-17.8,21.6a1.3,1.3,0,0,1,.5,1.5,1.1,1.1,0,0,1-1.5.5l-6.9-3.3a1.1,1.1,0,0,1-.5-1.5,1.1,1.1,0,0,1,1.5-.5Zm-8.9.6,8.9,4.4a1,1,0,0,1,.5,1.4,1,1,0,0,1-1.5.5l-8.8-4.3a1.1,1.1,0,0,1-.5-1.5,1.1,1.1,0,0,1,1.4-.5Zm17-28.1.9-.2v-.9a3.3,3.3,0,0,1,3-3.6,4.1,4.1,0,0,1,1.6.3l1.2.5.3-1.3a1.4,1.4,0,0,1,.2-.6,2.7,2.7,0,0,1,3.5-1.3l.9.4.5-1a1.7,1.7,0,0,1,2.4-.8,1.8,1.8,0,0,1,.9,1l.4.9,1-.3a1.3,1.3,0,0,1,1.3.2,1.5,1.5,0,0,1,.7,1.5,1.4,1.4,0,0,1-.2.6l-.7,1,1.1.6a2.9,2.9,0,0,1,1.5,3.8l-.3.7.5.5a4.1,4.1,0,0,1,.8,4.8,4.4,4.4,0,0,1-1.6,1.7,10.2,10.2,0,0,0-1.4-2.2l-.3-.5c0-.1-.1-.1,0-.2s.2-.3.3-.4a2.5,2.5,0,0,0,1.4-1.6v-.6a2.4,2.4,0,0,0-1.7-2.8h-.3l-3.2-.8-3.1-.7a2.4,2.4,0,0,0-2.9,1.7v.3h0v.3a2.3,2.3,0,0,0,.5,2.1.8.8,0,0,1,.2.4.2.2,0,0,1-.2.2l-.5.3-.5.2h-.2l-.4.3H769l-.4.3h-.2l-.4.3-.2.2-.5.6c-.1,0-.1,0-.1.1a1,1,0,0,0-.4.5l-.2.3-.2.3h0c0-.1-.1-.2-.1-.4a1.9,1.9,0,0,0-.2-.7.4.4,0,0,0-.1-.3,1.4,1.4,0,0,0-.2-.7.3.3,0,0,1-.1-.2l-.4-.8-.2-.2-.3-.4-.2-.3-.4-.3-.2-.2-.5-.3h-.2a5.8,5.8,0,0,0-3.2-.4,2.4,2.4,0,0,1,.2-.8A2.2,2.2,0,0,1,761.7,111.7Zm-10.3,5.1c.8-.6,2.1-.7,4.1-.3a6.7,6.7,0,0,0,2.8-.2l1.2-.3.8-.2h1.5l.6.2c1.2.6,1.9,2.5,2.1,5.6a7.6,7.6,0,0,1-1.7,5.2l-.2-.2a3,3,0,0,1-.8-.8l-.5-.8a5.6,5.6,0,0,0-2.3-2,6.2,6.2,0,0,0-3-.6h-.4a4.2,4.2,0,0,1-3.9-1.9l-1-1.5-.4-.5A2.9,2.9,0,0,1,751.4,116.8Zm1.3,34.2-10.9-5.3a1.1,1.1,0,0,1-.5-1.4,1.1,1.1,0,0,1,1.5-.5l10.9,5.3a1.1,1.1,0,0,1,.5,1.4A1.1,1.1,0,0,1,752.7,151Zm5.9,2.9-2-.9a1.3,1.3,0,0,1-.5-1.5,1.1,1.1,0,0,1,1.5-.5h0l2,.9a1.2,1.2,0,0,1,.5,1.5A1.1,1.1,0,0,1,758.6,153.9Z" transform="translate(-0.3 -1.6)" style="fill:url(#62e6757b-bce3-4d36-a46d-700f506f8840)"/><path d="M44.4,95l3.7-3.7-8.4-4.7Z" transform="translate(-0.3 -1.6)" style="fill:url(#c503b52c-2ee3-412e-bbc1-1f2cb7bd7df8)"/><path d="M86.3,38.2H64a23.7,23.7,0,0,0-14.9,6.2L3.3,90.1a10.3,10.3,0,0,0,0,14.7L30,131.6a10.5,10.5,0,0,0,14.7,0L90.5,85.8a23.7,23.7,0,0,0,6.2-14.9V48.6A10.4,10.4,0,0,0,86.3,38.2ZM40.2,110.8c-2.8,2.8-6.4,3.5-7.6,2.3a2.4,2.4,0,0,1-.3-2.8c.9-.8,3.1.2,5.3-1.9s1.8-3,.5-4.3c-3.2-3.2-9.1,4.6-14.1-.4-3.2-3.2-1.6-7.1.9-9.5s4.4-3.8,5.8-2.4,1.1,1.9.3,2.6-1.9.4-3.7,2.2-1.8,3-.8,4c2.7,2.7,8.6-5.1,14.1.4C43.7,104.1,43.1,107.8,40.2,110.8ZM56.1,94.5c-.5.5-1,.7-1.5.4l-3.7-2L46,97.8l2.1,3.6c.3.5,0,1-.4,1.5s-2.3,1.3-2.9.6-.2-.1-.2-.2L35.3,85.7a2.3,2.3,0,0,1,.8-2.7c.8-.9,1.9-1.4,2.7-.9l17.6,9.3.3.2C57.3,92.3,56.8,93.8,56.1,94.5ZM67.3,83.3l-6.8,6.8a1.5,1.5,0,0,1-2.1.3L44.5,76.5c-.6-.6-.2-1.6.6-2.3s1.6-1.1,2.2-.5L59.7,86.1l5.2-5.3c.5-.5,1.4-.2,2,.4s1,1.5.4,2.1ZM78.5,72.1l-7.6,7.6a1.5,1.5,0,0,1-2.1.3L54.9,66.2a1.5,1.5,0,0,1,.3-2.1l7.7-7.7c.6-.6,1.5-.2,2,.4s1,1.5.4,2.1l-6.1,6,4.3,4.3L66.8,66a1.3,1.3,0,0,1,1.9.2h.1a1.3,1.3,0,0,1,.2,1.9h0l-3.3,3.3L70,75.7l6.1-6.1c.5-.5,1.4-.3,2.1.4A1.5,1.5,0,0,1,78.5,72.1Zm2.4-13.9a2.8,2.8,0,1,1,0-4,2.8,2.8,0,0,1,.8,2,3.2,3.2,0,0,1-.8,2Z" transform="translate(-0.3 -1.6)" style="fill:url(#abccbf6e-dbf4-4726-8e11-4a195b051b1a)"/><path d="M657,269.2h-2v-1.9a1.9,1.9,0,1,0-3.8,0v1.9h-2a2,2,0,0,0-1.9,2,2,2,0,0,0,1.9,1.9h2V275a1.9,1.9,0,1,0,3.8,0v-1.9h2a2,2,0,0,0,1.9-1.9,2,2,0,0,0-1.9-2Z" transform="translate(-0.3 -1.6)" style="fill:url(#82d5adb1-03c8-4d61-8b10-b0ef0ae00181)"/><path d="M649.8,181.8a2,2,0,0,0,2.7,0h0l2.5-2.5,2.5,2.5a2,2,0,0,0,2.8-2.8h0l-2.5-2.5,2.5-2.5a2,2,0,0,0,0-2.7,2.1,2.1,0,0,0-2.8,0h0l-2.5,2.5-2.5-2.5a1.9,1.9,0,0,0-2.7.1,1.9,1.9,0,0,0,0,2.6l2.5,2.5-2.5,2.5A2.1,2.1,0,0,0,649.8,181.8Z" transform="translate(-0.3 -1.6)" style="fill:url(#895f9436-9b66-4d1f-a534-4df4682505d4)"/><path d="M635.7,201.6a2,2,0,1,0,3.9,0,2,2,0,0,0-1.9-1.9,2,2,0,0,0-2,1.9Z" transform="translate(-0.3 -1.6)" style="fill:url(#4188566b-d05a-4f7a-97dc-a52998603fa8)"/><path d="M620.3,190.1a2,2,0,0,0,1.9-2,2,2,0,0,0-1.9-1.9,2,2,0,0,0-2,1.9h0A2,2,0,0,0,620.3,190.1Z" transform="translate(-0.3 -1.6)" style="fill:url(#625c9efa-e427-4240-bb78-7b397cb4a11e)"/><path d="M655,217.1a1.9,1.9,0,0,0,2,1.9,1.9,1.9,0,0,0,0-3.8h0A1.9,1.9,0,0,0,655,217.1Z" transform="translate(-0.3 -1.6)" style="fill:url(#d42cbb44-b2d5-4e03-a417-904993ba9f39)"/><path d="M637.6,224.8a2,2,0,1,0,3.9,0,2,2,0,0,0-1.9-1.9h0A2,2,0,0,0,637.6,224.8Z" transform="translate(-0.3 -1.6)" style="fill:url(#949ec5c3-bf60-4fa5-ae20-64369d8093ae)"/><path d="M668.5,186.2a2,2,0,0,0-1.9,1.9,2,2,0,1,0,3.9,0h0A2,2,0,0,0,668.5,186.2Z" transform="translate(-0.3 -1.6)" style="fill:url(#be9344b6-019c-40a8-b812-e21171d985bc)"/><path d="M664.7,201.6c-20.2,0-36.6,19.4-39.7,23.3l-7.5-7.5c8.4-5.6,10.3-11,10.4-11.3a1.9,1.9,0,0,0-1.2-2.4,2,2,0,0,0-2.5,1.2s-1.7,4.7-9.5,9.7l-6.8-6.8c3.6-4.3,4.6-16,4.6-23.5a1.9,1.9,0,1,0-3.8,0c0,11.6-2.1,19-3.5,20.8l-6.7-6.7a1.9,1.9,0,0,0-2.8,0,.9.9,0,0,0-.4.6l-6.5,15,42.3,42.3,15-6.5a1.9,1.9,0,0,0,1-2.6l-.4-.6-8.8-8.8c1.2-2.1,8.5-5.2,21-5.2a1.9,1.9,0,0,0,1.9-2,1.9,1.9,0,0,0-1.9-1.9c-10.1,0-20.2,2.2-23.8,6.3l-7.3-7.3c1.8-2.3,17.9-22.2,36.9-22.2a1.9,1.9,0,0,0,0-3.8Z" transform="translate(-0.3 -1.6)" style="fill:url(#7456d220-8599-4fcd-bcd3-6a994cdf9277)"/><path d="M629.9,199.7h0a2,2,0,0,0,2-1.9c0-.3.2-6.8,8.7-11.9a1.8,1.8,0,0,0,.6-2.6,1.9,1.9,0,0,0-2.6-.7c-10.5,6.3-10.6,14.8-10.6,15.2A1.9,1.9,0,0,0,629.9,199.7Z" transform="translate(-0.3 -1.6)" style="fill:url(#9aded13b-1211-4a04-b9aa-92a00bda53be)"/><path d="M560.4,182.3a5.8,5.8,0,0,1,5.8,5.8,2,2,0,1,0,3.9,0,5.7,5.7,0,0,1,5.7-5.8,1.9,1.9,0,1,0,0-3.8,5.7,5.7,0,0,1-5.7-5.8,2,2,0,1,0-3.9,0,5.8,5.8,0,0,1-5.8,5.8,1.9,1.9,0,1,0,0,3.8Zm7.7-3.8a9,9,0,0,0,2,1.9,12.1,12.1,0,0,0-2,1.9,11.4,11.4,0,0,0-1.9-1.9A8.6,8.6,0,0,0,568.1,178.5Z" transform="translate(-0.3 -1.6)" style="fill:url(#dd52e467-63de-4b2b-af1c-53df3db7844a)"/><path d="M583.9,225.4l35.8,35.8,7.6-3.3-40.1-40.1Z" transform="translate(-0.3 -1.6)" style="fill:url(#e445a320-74c8-4e1f-b3cb-f3075aaf2c66)"/><path d="M576.4,242.8l25.9,25.9,13.6-5.9-33.7-33.6Z" transform="translate(-0.3 -1.6)" style="fill:url(#a1c7c606-d0d5-4e38-a76c-f9e5cc728b41)"/><path d="M558.6,283.9a2,2,0,0,0,1,2.6h1.6L587,275.3l-17.2-17.2Z" transform="translate(-0.3 -1.6)" style="fill:url(#9f239863-96db-4910-bd53-7f7561f4da6a)"/><path d="M571.4,254.3l19.4,19.4,7.7-3.3-23.8-23.8Z" transform="translate(-0.3 -1.6)" style="fill:url(#63f1e632-f927-48ce-aad8-da6a91c04ce1)"/><path d="M314.7,30.9,293.4,43.2a4.3,4.3,0,0,0-1.6,5.8h0l25,43.2a4.3,4.3,0,0,0,5.8,1.6h0l21.3-12.3a4.2,4.2,0,0,0,1.5-5.8L320.5,32.5A4.2,4.2,0,0,0,314.7,30.9ZM300.1,42.3l10.5-6.1c.2-.1.7.2,1,.6s.3,1.1,0,1.2l-10.5,6.1c-.3.1-.7-.1-1-.6S299.8,42.5,300.1,42.3Zm31,41.7a2.7,2.7,0,1,1-2.7-4.7,2.7,2.7,0,0,1,3.7,1h0a2.7,2.7,0,0,1-1,3.7Zm7-14.7L314.9,82.6,296.1,49.9l23.1-13.3Z" transform="translate(-0.3 -1.6)" style="fill:url(#27087068-caad-4155-8e8b-492a50e4aa14)"/><path d="M782,216.6l-18.4-6a3.3,3.3,0,0,0-4.2,2.2h0l-12.2,37.3a3.3,3.3,0,0,0,2.2,4.2h0l18.4,5.9a3.4,3.4,0,0,0,4.2-2.1l12.1-37.4a3.3,3.3,0,0,0-2.1-4.2Zm-14.4-2.5,9.1,2.9c.2.1.3.5.2.9s-.5.7-.7.6l-9.1-2.9c-.2-.1-.3-.5-.1-.9S767.4,214,767.6,214.1Zm-8,40.1a2.2,2.2,0,0,1,1.3-4.1,2.2,2.2,0,0,1,1.4,2.7h0a2.2,2.2,0,0,1-2.7,1.4Zm12.3-3.7-20-6.5,9.2-28.3,20,6.5Z" transform="translate(-0.3 -1.6)" style="fill:url(#1e983923-1865-477f-8c0e-457f3ffb2356)"/><path d="M152.8,124.9a2.4,2.4,0,1,0,2.3-2.4A2.3,2.3,0,0,0,152.8,124.9Z" transform="translate(-0.3 -1.6)" style="fill:url(#d519a50b-9f8e-4d17-a0e5-10c4588ef99e)"/><path d="M151.1,132.3a2.4,2.4,0,1,0,2.4,2.4A2.4,2.4,0,0,0,151.1,132.3Z" transform="translate(-0.3 -1.6)" style="fill:url(#37870ec1-c46a-4e36-b18c-2b1ad2b37fa2)"/><path d="M194.4,126.4A2.4,2.4,0,1,0,192,124,2.4,2.4,0,0,0,194.4,126.4Z" transform="translate(-0.3 -1.6)" style="fill:url(#872fe0d8-b7a6-4eca-81cf-e5bc43dd5e76)"/><path d="M192.7,133.8a2.3,2.3,0,0,0-2.4-2.3,2.3,2.3,0,0,0-2.3,2.3,2.3,2.3,0,0,0,2.3,2.4A2.4,2.4,0,0,0,192.7,133.8Z" transform="translate(-0.3 -1.6)" style="fill:url(#1c07a85d-e734-40fb-9f83-19ffabcf8334)"/><path d="M171.8,137.1a18,18,0,0,0-3.9.8,12.1,12.1,0,0,1,4-7.6,2.3,2.3,0,0,0,.5-3.3,2.4,2.4,0,0,0-3.4-.5c-4,3.1-6,8.7-6.1,13.8a19.4,19.4,0,0,0-2.6,2.3c-3.2,3.5-5.1,8.4-5.9,14.5a2.5,2.5,0,0,0,2.1,2.7h.3a2.5,2.5,0,0,0,2.4-2.1c.5-4,1.7-8.5,4.5-11.7v.4c1.6,4.3,4.9,6.7,9.1,6.7h.5a8.6,8.6,0,0,0,7.3-4.6,7.9,7.9,0,0,0-.4-8c-.9-1.4-3.3-3.8-8.5-3.4Zm4.6,9.2a3.7,3.7,0,0,1-3.2,2c-2.4.2-4-1-4.9-3.5a10.5,10.5,0,0,1-.5-1.9,13.4,13.4,0,0,1,4.4-1c2-.2,3.5.3,4.2,1.3a3.1,3.1,0,0,1,0,3.1Z" transform="translate(-0.3 -1.6)" style="fill:url(#6af45985-d761-4d50-9b0f-e2840c3bea25)"/><path d="M216.9,106.1a18.6,18.6,0,0,0,2.6-2.3c3.1-3.4,5.1-8.3,5.8-14.5a2.4,2.4,0,0,0-2-2.7,2.5,2.5,0,0,0-2.7,2.1c-.5,4-1.7,8.6-4.5,11.7l-.2-.4c-1.6-4.4-5.1-6.9-9.5-6.7a8.5,8.5,0,0,0-7.3,4.7,8,8,0,0,0,.3,7.9c1,1.4,3.4,3.8,8.5,3.4a17.6,17.6,0,0,0,4-.7,11.7,11.7,0,0,1-4.1,7.5,2.5,2.5,0,0,0-.4,3.4,2.4,2.4,0,0,0,3.3.4c4.1-3.1,6.1-8.7,6.2-13.8Zm-9.3-1.5c-2.1.1-3.5-.4-4.2-1.4a3.1,3.1,0,0,1-.1-3.1,3.8,3.8,0,0,1,3.3-2h.3c2.2,0,3.7,1.2,4.6,3.6a11.6,11.6,0,0,1,.4,1.8A12.4,12.4,0,0,1,207.6,104.6Z" transform="translate(-0.3 -1.6)" style="fill:url(#c2a24000-5b21-462e-b34a-fc8480dabc77)"/><path d="M189.4,108.5l-6.9-7a2.5,2.5,0,0,0-3.4,0h0l-7,7a2.5,2.5,0,0,0,0,3.4l7,6.9a2.3,2.3,0,0,0,3.4,0h0l6.9-6.9a2.3,2.3,0,0,0,0-3.4Zm-8.6,5.3-3.6-3.6,3.6-3.6,3.6,3.6Z" transform="translate(-0.3 -1.6)" style="fill:url(#f234a4b3-2d6c-4f8e-a784-d38e972420eb)"/><path d="M228.7,135l-6.9-7a2.5,2.5,0,0,0-3.4,0l-7,7a2.5,2.5,0,0,0,0,3.4l7,6.9a2.3,2.3,0,0,0,3.4,0h0l6.9-6.9A2.3,2.3,0,0,0,228.7,135Zm-8.6,5.3-3.6-3.6,3.6-3.6,3.6,3.6Z" transform="translate(-0.3 -1.6)" style="fill:url(#3f0283c4-5f14-45da-8ed5-5aa3c5b0aeb0)"/><path d="M196.9,147.9a7.6,7.6,0,0,0-7.6,7.6,7.7,7.7,0,1,0,7.6-7.6Zm0,10.5a2.8,2.8,0,0,1-2.8-2.9,2.7,2.7,0,0,1,2.8-2.8,2.8,2.8,0,0,1,2.9,2.8,2.9,2.9,0,0,1-2.9,2.9Z" transform="translate(-0.3 -1.6)" style="fill:url(#a3261b93-0107-4b31-a842-1bb1c515c3bb)"/><path d="M158.4,103.8a7.6,7.6,0,0,0,7.6-7.6,7.7,7.7,0,0,0-7.6-7.7,7.8,7.8,0,0,0-7.7,7.7A7.7,7.7,0,0,0,158.4,103.8Zm0-10.5a2.9,2.9,0,1,1-2.9,2.9h0A2.9,2.9,0,0,1,158.4,93.3Z" transform="translate(-0.3 -1.6)" style="fill:url(#7cadbd4a-d7b8-4897-a9e7-7b76627e7f02)"/><path d="M203.4,131.7a2.4,2.4,0,1,0-2.4,2.4A2.5,2.5,0,0,0,203.4,131.7Z" transform="translate(-0.3 -1.6)" style="fill:url(#d6f5ac8c-0549-4f4f-9fdd-1542c55e217e)"/><path d="M224.7,365a1.3,1.3,0,0,0,1.2,1.2,1.2,1.2,0,0,0,1.2-1.2,1.2,1.2,0,0,0-1.2-1.2A1.2,1.2,0,0,0,224.7,365Z" transform="translate(-0.3 -1.6)" style="fill:url(#ff792a3a-6bea-4305-8800-f08cea49e143)"/><path d="M223.9,368.7a1.2,1.2,0,0,0-1.2,1.2,1.3,1.3,0,0,0,1.2,1.2,1.2,1.2,0,0,0,1.2-1.2,1.1,1.1,0,0,0-1.1-1.2Z" transform="translate(-0.3 -1.6)" style="fill:url(#b3bb9990-e84f-45f8-8888-ba19e5825e87)"/><path d="M245.6,365.7a1.1,1.1,0,0,0,1.2-1.1,1.2,1.2,0,1,0-2.4,0A1.1,1.1,0,0,0,245.6,365.7Z" transform="translate(-0.3 -1.6)" style="fill:url(#87b2e190-6741-4b7c-90fe-b5f5c1f42d98)"/><path d="M244.8,369.5a1.2,1.2,0,0,0-1.2-1.2,1.2,1.2,0,0,0-1.2,1.2,1.2,1.2,0,0,0,1.2,1.2A1.4,1.4,0,0,0,244.8,369.5Z" transform="translate(-0.3 -1.6)" style="fill:url(#edd36d95-9b48-436d-9133-f9602fba5d7f)"/><path d="M234.3,371.1l-2,.4a6.2,6.2,0,0,1,2-3.8,1.2,1.2,0,0,0,.3-1.7,1.2,1.2,0,0,0-1.7-.2h0a9.1,9.1,0,0,0-3.1,6.9,7.4,7.4,0,0,0-1.3,1.2,12.7,12.7,0,0,0-2.9,7.2,1.2,1.2,0,0,0,1,1.4h.2a1.1,1.1,0,0,0,1.1-1.1,11.3,11.3,0,0,1,2.3-5.8.3.3,0,0,1,.1.2,4.6,4.6,0,0,0,4.5,3.3h.3a4.2,4.2,0,0,0,3.5-6.3,4.5,4.5,0,0,0-4.3-1.7Zm2.3,4.6a1.9,1.9,0,0,1-1.6,1,2.3,2.3,0,0,1-2.5-1.7,3,3,0,0,1-.2-1,7.9,7.9,0,0,1,2.2-.5,2.2,2.2,0,0,1,2.1.7,1.4,1.4,0,0,1,0,1.5Z" transform="translate(-0.3 -1.6)" style="fill:url(#5df16003-2ce7-4e58-b54f-9a0a1feb0d97)"/><path d="M256.9,355.6a14.2,14.2,0,0,0,1.3-1.2,12.7,12.7,0,0,0,2.9-7.2,1.2,1.2,0,0,0-1-1.4,1.2,1.2,0,0,0-1.4,1h0a10.4,10.4,0,0,1-2.2,5.8c-.1,0-.1-.1-.1-.2a4.6,4.6,0,0,0-4.8-3.3,4.2,4.2,0,0,0-3.5,6.3,4.5,4.5,0,0,0,4.3,1.7l2-.4a5.8,5.8,0,0,1-2.1,3.8,1.2,1.2,0,0,0,1.5,1.9h0a9.1,9.1,0,0,0,3.1-6.9Zm-4.7-.8a2.1,2.1,0,0,1-2.1-.7,1.4,1.4,0,0,1,0-1.5,1.8,1.8,0,0,1,1.6-1h.2a2.4,2.4,0,0,1,2.3,1.8c.1.3.1.6.2.9a5.9,5.9,0,0,1-2.2.5Z" transform="translate(-0.3 -1.6)" style="fill:url(#ec5f1075-3cd9-4dbf-a6a0-b32cddfb17dd)"/><path d="M243.1,356.8l-3.5-3.5a1.1,1.1,0,0,0-1.7,0h0l-3.5,3.5a1.4,1.4,0,0,0,0,1.7l3.5,3.4a1.2,1.2,0,0,0,1.7.1h0l3.5-3.4a1.1,1.1,0,0,0,0-1.7Zm-4.3,2.6-1.8-1.8,1.8-1.8,1.8,1.8Z" transform="translate(-0.3 -1.6)" style="fill:url(#b65dc0f9-89d2-44a6-800f-343f3c7119f1)"/><path d="M262.8,370l-3.5-3.4a1.1,1.1,0,0,0-1.7,0h0l-3.5,3.4a1.4,1.4,0,0,0,0,1.7l3.5,3.5a1.1,1.1,0,0,0,1.7,0h0l3.5-3.5A1.1,1.1,0,0,0,262.8,370Zm-4.3,2.7-1.8-1.8,1.8-1.8,1.8,1.8Z" transform="translate(-0.3 -1.6)" style="fill:url(#3651183b-2d99-4fff-9050-3e7f81b9403d)"/><path d="M246.9,376.5a3.9,3.9,0,1,0,0,7.7,3.8,3.8,0,0,0,3.8-3.9h0A3.8,3.8,0,0,0,246.9,376.5Zm0,5.3a1.5,1.5,0,0,1-1.5-1.5,1.5,1.5,0,0,1,1.5-1.4,1.4,1.4,0,0,1,1.4,1.4,1.5,1.5,0,0,1-1.4,1.5Z" transform="translate(-0.3 -1.6)" style="fill:url(#edc700bb-28e8-4206-975c-72667c4ce698)"/><path d="M227.6,354.4a3.8,3.8,0,1,0-3.9-3.8h0A3.8,3.8,0,0,0,227.6,354.4Zm0-5.2a1.4,1.4,0,0,1,0,2.8,1.5,1.5,0,0,1-1.5-1.4h0A1.5,1.5,0,0,1,227.6,349.2Z" transform="translate(-0.3 -1.6)" style="fill:url(#84d30da4-b27a-499a-a276-213605744d41)"/><path d="M250.1,368.4a1.2,1.2,0,0,0-2.4,0,1.2,1.2,0,0,0,2.4,0Z" transform="translate(-0.3 -1.6)" style="fill:url(#3ceee44f-b429-43f6-b6f8-51b1a6d42099)"/><path d="M1021.1,372.6l-44.2-7a5.1,5.1,0,0,0-5.8,4.2h0l-10.1,64a5.1,5.1,0,0,0,4.2,5.9h0l44.1,7a5.2,5.2,0,0,0,5.9-4.3l10.1-64a5,5,0,0,0-4.2-5.8Zm-33.5,68.7a3,3,0,1,1,3.4-2.5h0a3,3,0,0,1-3.4,2.5Zm23.3-5.1-44-7,9.1-57.6,44.1,7Z" transform="translate(-0.3 -1.6)" style="fill:url(#84553943-c3d2-4ad7-8d50-9772d9a6a86d)"/><path d="M125,416.8l-4.8-3.3-5.4,3.7,1.7-17.1-15.1,6.7,16,35.9L143,431.3l-16-35.9Z" transform="translate(-0.3 -1.6)" style="fill:url(#08ca0c9b-8759-4752-b123-13efc752d074)"/><path d="M151.9,363.8l-17,7.6a23.1,23.1,0,0,0,1.9-2.8c2.1-3.6,2.5-7,1.3-9.7s-3.5-5-5.7-5.6a9.2,9.2,0,0,0-6.7.4,12.5,12.5,0,0,0-5.4,4.8c-2,3.2-2.3,8.2-2.5,11.9v.6c-1.1-.9-2.9-3-4.1-3.8a19.3,19.3,0,0,0-6.9-2.6,12.6,12.6,0,0,0-7.2.7,10.1,10.1,0,0,0-5,5.2c-.9,2.2-.5,6,.5,8.4a9,9,0,0,0,3.1,3.6,14.3,14.3,0,0,0,7,2.1l-15.7,7,6.4,14.2,29.4-13.1L119,378.5l3.5-1.6,6.4,14.2,29.4-13Zm-47.7,15.9a9.3,9.3,0,0,1-3.3-1.2,5.8,5.8,0,0,1-1.8-6.2,5,5,0,0,1,2.4-2.6h0a7.7,7.7,0,0,1,4.5-.4c2.5.4,5.9,3.1,8.3,5.1a17.2,17.2,0,0,1,3.3,3.3C111.4,379.7,107,380.1,104.2,379.7Zm18.7-12.1c.4-2,.6-5.1,1.5-6.5a7.4,7.4,0,0,1,3.3-3h0a4.7,4.7,0,0,1,3.3-.3,4.5,4.5,0,0,1,2.3,2.2,7.3,7.3,0,0,1-.6,6.1c-1.5,2.6-4.5,5.9-9.8,9.6a22.1,22.1,0,0,1,0-8.1Z" transform="translate(-0.3 -1.6)" style="fill:url(#4a033b8d-12a2-4fa6-aa69-5fba11678727)"/><path d="M154.1,399.7l-6.3,1.6-.8,5.8-17-12.7,15.9,35.7,25.4-11.4-16-35.9-15,6.7Z" transform="translate(-0.3 -1.6)" style="fill:url(#f599b943-6e42-439a-8806-182f0251cf95)"/><path d="M129.9,394.1" transform="translate(-0.3 -1.6)" style="fill:url(#658495fe-c75f-4988-9212-373063cda43a)"/><path d="M384.3,333.3l-3,4.8,4.8,2.9,2.9-4.7" transform="translate(-0.3 -1.6)" style="fill:url(#4c959cf5-ecc2-47b4-96d0-d561dce126f8)"/><path d="M341.1,304.7a14,14,0,1,0-4.4-19.3A14,14,0,0,0,341.1,304.7Zm13.4-21.3a11.2,11.2,0,1,1-15.4,3.5h0a11.2,11.2,0,0,1,15.4-3.5Z" transform="translate(-0.3 -1.6)" style="fill:url(#e8ea015f-8d72-4e8e-a727-4b69b62ed1a1)"/><path d="M344.1,300a8.5,8.5,0,0,0,10.5-1.3l-.4-1.6a2,2,0,0,0-2.4-1.5l-1.1.2a4.7,4.7,0,0,1-5.7-3.5h0l-.3-1.1a2.1,2.1,0,0,0-2.4-1.5l-1.6.4A8.4,8.4,0,0,0,344.1,300Z" transform="translate(-0.3 -1.6)" style="fill:url(#e34ee9ed-4968-4a7f-84d9-259ded80c296)"/><path d="M319.2,297.6l38,23.7,20.7-33.2L340,264.4Zm38.2-19a16.8,16.8,0,1,1-23.1,5.4h0A16.8,16.8,0,0,1,357.4,278.6Z" transform="translate(-0.3 -1.6)" style="fill:url(#93e9ea5f-f7db-49b7-a61a-2c971527e39c)"/><path d="M376.7,247.8l-16.6-10.4-7.4,11.9,16.6,10.3Zm-19.1.8-.6-2.8,7.7-1.7.6,2.7Zm7.1,4.4-.6-2.7,7.7-1.8.6,2.7Z" transform="translate(-0.3 -1.6)" style="fill:url(#4ee1662d-87ed-49b9-bbea-76a6f9cb118a)"/><path d="M350.6,257.9l14.3,8.9-1.5,2.3-14.3-8.9Z" transform="translate(-0.3 -1.6)" style="fill:url(#749a4a43-3374-455d-97fb-472270f729d0)"/><path d="M347.4,290.5l.3,1.1a2,2,0,0,0,2.4,1.5l1.1-.3a5,5,0,0,1,5.3,2.6,8.2,8.2,0,0,0-5.3-10.5,8.3,8.3,0,0,0-8.4,1.9A4.8,4.8,0,0,1,347.4,290.5Z" transform="translate(-0.3 -1.6)" style="fill:url(#1650d84f-78a2-4460-88dd-b231f7789e2c)"/><path d="M362.5,318l28.4,17.8,23.8-37.9-28.5-17.8Zm39-20.1a1.3,1.3,0,0,1,1.9-.5h0l4.7,3a1.4,1.4,0,0,1,.5,1.9h0l-8.9,14.3a1.4,1.4,0,0,1-1.9.4h0l-4.8-3a1.4,1.4,0,0,1-.4-1.9h0Z" transform="translate(-0.3 -1.6)" style="fill:url(#66ccc416-75da-46a9-a467-111a997827aa)"/><path d="M403.1,300.6l2.4,1.4-7.4,11.9-2.4-1.5Z" transform="translate(-0.3 -1.6)" style="fill:url(#c86d734c-253a-48be-9b34-8c6a4e2428e3)"/><path d="M348.9,250.2,341.4,262l38,23.7,7.4-11.8ZM365,271.8a1.3,1.3,0,0,1-1.9.4l-16.6-10.3a1.5,1.5,0,0,1-.5-2l3-4.7a1.3,1.3,0,0,1,1.9-.4l16.6,10.3a1.5,1.5,0,0,1,.5,2Zm13.5,10.1-10.7-6.7,1.5-2.4,10.7,6.7Zm3-4.8-10.7-6.6,1.5-2.4,10.6,6.7Z" transform="translate(-0.3 -1.6)" style="fill:url(#a5d69b7c-7846-47f9-ac0a-665b795e1a69)"/><path d="M385.9,270l3.6,2.2a1.6,1.6,0,0,1,.4,2h0l-2.2,3.5,28.4,17.8,11.9-19-33.2-20.7Z" transform="translate(-0.3 -1.6)" style="fill:url(#2272d6cc-255e-4471-aeed-d46881ea856c)"/><path d="M397.8,251.1,431,271.8l-1.5,2.4-33.2-20.8Z" transform="translate(-0.3 -1.6)" style="fill:url(#67681af6-05b8-42fd-a9f0-4f7c62d75650)"/><path d="M386.2,253.7l-7.1-4.4-7.4,11.8,7.1,4.5Zm-8.3,8-2.4-1.5,1.5-2.3,2.4,1.5Zm3-4.7-2.4-1.5,1.5-2.4,2.4,1.5Z" transform="translate(-0.3 -1.6)" style="fill:url(#838be3b3-2fc1-4e76-adf1-50b78b4f9eb5)"/><path d="M364.8,402.4a7.2,7.2,0,0,0,7.7-3.9,23.5,23.5,0,0,1-7-.2,27.8,27.8,0,0,1-6.8-2A7.3,7.3,0,0,0,364.8,402.4Z" transform="translate(-0.3 -1.6)" style="fill:url(#9746ac8f-4d89-480e-a842-c484f20909a2)"/><path d="M400.8,411.9a1.4,1.4,0,0,0-.7-1.1l-13-8.7a93.7,93.7,0,0,0-8.6-3.8h-.4a1.7,1.7,0,0,0-1.8,1.1,11,11,0,0,1-14.4,6.2,11.1,11.1,0,0,1-7-9.6,1.7,1.7,0,0,0-1.4-1.6h-.3a61.3,61.3,0,0,0-9.5,1l-15,4.2a1.6,1.6,0,0,0-1,.8,2,2,0,0,0-.1,1.3l4.2,12.9a1.6,1.6,0,0,0,1.8,1.2l7-.9-6.3,40.1a1.6,1.6,0,0,0,1.4,1.9l40.1,6.4a1.8,1.8,0,0,0,1.9-1.4l6.3-40.2,6.5,3.1a1.7,1.7,0,0,0,2.1-.5l7.9-11A1.6,1.6,0,0,0,400.8,411.9Z" transform="translate(-0.3 -1.6)" style="fill:url(#b6eeb7b1-bcdc-4882-9ca4-f20a68f2ca43)"/><path d="M508.1,74.8l-1.5,9.8a1.9,1.9,0,0,1-.9,1.4,2.3,2.3,0,0,1-1.6.3L453.3,72.6a1.9,1.9,0,0,1-1.3-1,1.8,1.8,0,0,1-.1-1.6l3.7-9.3Zm4-26.4-3.7,24.4-52.1-14,9-22.9a1.7,1.7,0,0,1,.9-1.1,2.6,2.6,0,0,1,1.5-.2l7.8,2.1-1.1,3.9a4.1,4.1,0,0,0,2.9,5,4,4,0,0,0,4.9-2.9l1.1-3.9L495,42l-1,3.9a4,4,0,0,0,2.8,4.9,4.1,4.1,0,0,0,5-2.8l1-3.9,7.8,2.1a2,2,0,0,1,1.2.8A1.7,1.7,0,0,1,512.1,48.4Zm-10.2-8.8-2.1,7.9a2,2,0,1,1-3.9-1.1l2.1-7.8a7.6,7.6,0,0,0-.8-6.1,8.1,8.1,0,0,0-11-3h0a7.5,7.5,0,0,0-3.8,4.9l-2.1,7.8a2,2,0,0,1-2.5,1.4,1.9,1.9,0,0,1-1.4-2.4l2.1-7.8a11.7,11.7,0,0,1,5.6-7.4,11.5,11.5,0,0,1,9.2-1.2,11.7,11.7,0,0,1,7.4,5.6A11.5,11.5,0,0,1,501.9,39.6Z" transform="translate(-0.3 -1.6)" style="fill:url(#a45f7c9b-e9c3-40fe-888d-bde60cd63dce)"/><path d="M538.7,361.7a50.5,50.5,0,0,0-7.9-13.7,49.2,49.2,0,0,0-11.5-10.8c-4-2.6-7.2-3.1-9.1-1.6l-3.3,2.6c-1.9,1.5-2.1,4.8-.6,9.3a47.7,47.7,0,0,0,7.6,13.1H511a116.3,116.3,0,0,0-11.4-11.9,15.9,15.9,0,0,0-1.9-4.2.9.9,0,0,0-1.2-.3,1,1,0,0,0-.3,1.2,22.6,22.6,0,0,1,1.7,3.5l-1.1,1.1-5.5-5.4a1.1,1.1,0,0,0-1.3,0,.9.9,0,0,0,0,1.2l5.6,5.5-1.9,1.9-5.6-5.4a.7.7,0,0,0-1.2,0,.8.8,0,0,0,0,1.2h0l5.6,5.5-1.1,1.1a25.2,25.2,0,0,1-8.2-4.9,2.2,2.2,0,0,1-.2-3.2h.1l6.5-6.6a2.2,2.2,0,0,1,3.1-.1h.1l1.2,1.3a.8.8,0,0,0,1.2.2.9.9,0,0,0,.1-1.3h0l-1.2-1.3a3.9,3.9,0,0,0-5.6-.3c-.1,0-.1.1-.2.2l-6.5,6.6a4,4,0,0,0,.1,5.6c0,.1.1.1.1.2a26.2,26.2,0,0,0,9.1,5.3c.7.7,3.1,3.3,6.4,6.3-3.1,1.5-4.8,3.3-4.8,5.3a2.9,2.9,0,0,0,.4,1.6h0l2.2,5.5a7.5,7.5,0,0,0,4.5,4.2,54.5,54.5,0,0,0,15.5,1.9,67.2,67.2,0,0,0,12.6-1.2l7.1,7a2.7,2.7,0,0,1,.2,3.8c-.1.1-.1.1-.1.2a3.3,3.3,0,0,1-2,.9H533a2.8,2.8,0,0,1-1.9-.9l-9.1-8.9a.9.9,0,0,0-1.3,1.3l9.1,8.9a4.8,4.8,0,0,0,3.2,1.3h.1a4.3,4.3,0,0,0,3.2-1.4,4.4,4.4,0,0,0,.1-6.3h-.2l-6.3-6.3,1.3-.4a5.9,5.9,0,0,0,3.8-3.6l1.9-4.5,1.3-1h0C540.1,369.5,540.3,366.2,538.7,361.7Zm-45.9-5,6.1-6.2a98.3,98.3,0,0,1,10,10.4,76.6,76.6,0,0,0-9.5,2.1C496.2,360.2,493.9,357.8,492.8,356.7Zm1.7,12.3c0-1.5,2.1-3.2,5.7-4.5s9.6-2,15.1-2.1l2.4,2.8h-2.4a52.8,52.8,0,0,0-12.5,1.5l-2,.6a2.1,2.1,0,0,0-1.2,2.5,2.2,2.2,0,0,0,1.2,1.1l2,.7,1.9.4a.9.9,0,0,0,.9-.9.8.8,0,0,0-.7-.8l-1.6-.4-1.9-.6c-.1-.1-.1-.1-.1-.2a.1.1,0,0,1,.1-.1l1.9-.6a43.8,43.8,0,0,1,12-1.4h4.3a27.1,27.1,0,0,0,4.1,3.5,47.6,47.6,0,0,1-8.4.7,44.9,44.9,0,0,1-6.4-.4.9.9,0,0,0-.2,1.8q3.3.3,6.6.3a45.8,45.8,0,0,0,10.4-1h0a25.3,25.3,0,0,0,3.7,1.8,48.4,48.4,0,0,1-14.1,1.9C503,375.7,494.5,372.2,494.5,369Zm38.9,6.8a4.3,4.3,0,0,1-2.7,2.6c-2.6.9-7.5,2-15.4,2s-12.3-1-14.9-1.8a5.8,5.8,0,0,1-3.5-3.2l-.7-1.8a17.4,17.4,0,0,0,3.4,1.6,49.3,49.3,0,0,0,15.7,2.2c6.7,0,13.4-1.2,17.6-3l1.3-.4Zm.3-3.6c-1.2,1-3.8.3-7.1-1.7a47.7,47.7,0,0,1-11-10.5c-7.6-9.6-10.1-18.5-7.6-20.4l.6-.6a16.2,16.2,0,0,0,1.1,5.8,48,48,0,0,0,7.9,13.7A48.7,48.7,0,0,0,529,369.3a16.3,16.3,0,0,0,5.4,2.4Zm3.4-2.6c-1.2.9-3.9.3-7.1-1.7a47.8,47.8,0,0,1-11-10.5,45.6,45.6,0,0,1-7.7-13.1c-1.2-3.6-1.2-6.4,0-7.4a2.6,2.6,0,0,1,1.5-.4,11.8,11.8,0,0,1,5.6,2.2,47.2,47.2,0,0,1,11,10.4C537,358.7,539.6,367.6,537.1,369.6Z" transform="translate(-0.3 -1.6)" style="fill:url(#943c2a1b-eca0-44b0-86c7-f3b8a6e404d0)"/><path d="M270.7,25.4a5.6,5.6,0,0,1-4.2-1.8,5.8,5.8,0,0,1-1.7-4.1.8.8,0,0,0-.8-.8.7.7,0,0,0-.8.8,5.8,5.8,0,0,1-1.7,4.1,5.9,5.9,0,0,1-4.2,1.8.7.7,0,0,0-.8.8.7.7,0,0,0,.8.7,6,6,0,0,1,5.9,5.9.7.7,0,0,0,.8.8.8.8,0,0,0,.8-.8h0a5.9,5.9,0,0,1,5.9-5.9.8.8,0,0,0,.8-.7.8.8,0,0,0-.8-.8Z" transform="translate(-0.3 -1.6)" style="fill:url(#05e58029-df29-49de-a579-b057c7ff94a2)"/><path d="M255.5,19.3a4.2,4.2,0,0,1-4.2-4.2.8.8,0,0,0-1.6,0,4.1,4.1,0,0,1-4.1,4.2.7.7,0,0,0-.8.7.7.7,0,0,0,.8.8,4.1,4.1,0,0,1,4.1,4.2.8.8,0,0,0,1.6,0,4.2,4.2,0,0,1,4.2-4.2.8.8,0,0,0,.8-.8A.8.8,0,0,0,255.5,19.3Z" transform="translate(-0.3 -1.6)" style="fill:url(#d6a50695-c504-42bc-844a-5c67d1b7624a)"/><path d="M256.8,12.3a3.1,3.1,0,0,1,3,3.1.8.8,0,1,0,1.6,0,3.1,3.1,0,0,1,3.1-3.1.7.7,0,0,0,.7-.8.7.7,0,0,0-.7-.7,3.1,3.1,0,0,1-3.1-3.1.8.8,0,0,0-1.6,0,3.1,3.1,0,0,1-3,3.1.7.7,0,0,0-.8.8.7.7,0,0,0,.8.7Z" transform="translate(-0.3 -1.6)" style="fill:url(#456464f6-8920-4ef2-8da4-f3b532eb71a7)"/><path d="M696,358.4h-.1c-6.1-.7-11.7,2.6-17.7-.4s-11.4-8.9-16.8-13-11.9-8.8-18-13c-4.4-3.1-8.6-6.8-13.6-8.6-.9-1-1.5-1.3-2.3-.4a1.4,1.4,0,0,0-.7,1.1c-.5,1.1-.9,2.1-1.3,3.2-3.3,9.4-2.3,16.6,2.8,23.7s12,35.5,12,35.5,1.7,1.3,2.7.1-9-27-7.6-30.7c0,0,8.4-8.1,21.8,8.3s17.5,15.7,23.3,14.2,23.2-5.8,35.1-11.5S718.8,358.8,696,358.4Zm-18.2,8.2c-9.9-6.8-36.3-32.3-42.6-37.3l-.3-.3c3.2,2.1,6.3,4.7,9.2,6.7,7.3,5.2,14.5,10.5,21.6,16,4.2,3.2,8.1,7,12.9,9.4s10.3-.2,15.7-.1C691.3,365,685,371.5,677.8,366.6Z" transform="translate(-0.3 -1.6)" style="fill:url(#14b7c1da-21cb-4b0f-b9a4-d1457f5b86e1)"/><path d="M855.6,391c-.7-18.5-18.7-15.9-18.7-15.9a7.1,7.1,0,0,1-4-.7l-3.3-1.9a6.8,6.8,0,0,1-2.8-3s-7.3-16.6-23.3-7.4-21,26-21,26c-1.4,4-.9,7.5,3,9.3s17.1-3.5,17.1-3.5a5.3,5.3,0,0,1,3.9.3l20.3,11.2a5.8,5.8,0,0,1,2.3,3.2s2.6,14,6.1,16.3,6.9,1,9.5-2.4C844.7,422.5,856.4,409.4,855.6,391Zm-39.9-7.5-4.3-2.4-2.4,4.2a4.3,4.3,0,0,1-2.7-.6,3,3,0,0,1-1.6-1.9l2.2-4.1-4.1-2.3a4.5,4.5,0,0,1,.4-2.3,5.3,5.3,0,0,1,2-2.2l4.3,2.4L812,370a5.5,5.5,0,0,1,2.4.7,8.1,8.1,0,0,1,1.9,1.8l-2.4,4.3,4.2,2.2a5.3,5.3,0,0,1-.4,2.5A6.4,6.4,0,0,1,815.7,383.5ZM833,399.4a4,4,0,0,1-1.5-5.4,3.8,3.8,0,0,1,5.3-1.5,3.9,3.9,0,0,1,1.6,5.3,4.1,4.1,0,0,1-5.4,1.6Zm5.3-9.5a4.1,4.1,0,0,1-1.6-5.4,4,4,0,1,1,6.9,3.9,3.9,3.9,0,0,1-5.3,1.5Zm5.7,9.8a3.8,3.8,0,0,1-1.5-5.3,3.9,3.9,0,1,1,6.9,3.8,4,4,0,0,1-5.4,1.5Z" transform="translate(-0.3 -1.6)" style="fill:url(#2bddaa98-59e2-4b46-b6a0-11f99d8bd22f)"/><path d="M98.8,279.2c-.9-23.7-24-20.4-24-20.4a9.1,9.1,0,0,1-5.1-.9l-4.3-2.4a10.1,10.1,0,0,1-3.5-3.9s-9.4-21.3-30-9.5S5,275.4,5,275.4c-1.8,5.2-1.1,9.7,3.9,11.9s21.9-4.4,21.9-4.4a6.7,6.7,0,0,1,5,.4l26,14.4a6.2,6.2,0,0,1,2.9,4s3.5,18,8,21,8.7,1.2,12.1-3C84.8,319.7,99.8,302.8,98.8,279.2Zm-51.2-9.6L42,266.5l-3,5.4a6.2,6.2,0,0,1-3.5-.8,4.4,4.4,0,0,1-2.1-2.5l3-5.3-5.3-2.9a4.2,4.2,0,0,1,.5-2.9,6.2,6.2,0,0,1,2.5-2.8l5.6,3.1,3.1-5.6a6.7,6.7,0,0,1,3.1,1,7.8,7.8,0,0,1,2.5,2.3l-3.1,5.4,5.3,2.9a5.8,5.8,0,0,1-.4,3.2A8.1,8.1,0,0,1,47.6,269.6Zm22.2,20.3a5,5,0,0,1-1.9-6.9,5,5,0,0,1,8.8,4.9,5,5,0,0,1-6.9,2Zm6.8-12.1a5.1,5.1,0,1,1,6.8-2,5,5,0,0,1-6.8,2Zm7.3,12.6a5.1,5.1,0,0,1-1.9-6.9,5.2,5.2,0,0,1,6.9-2,5.1,5.1,0,0,1,1.9,6.9,5,5,0,0,1-6.8,2Z" transform="translate(-0.3 -1.6)" style="fill:url(#e4abfbb0-4e5e-4602-94a4-48f5f92e2942)"/><path d="M431.8,195.3l-7.5,1.4-.5-2.6a7.7,7.7,0,0,0,.1-10.9,6.8,6.8,0,0,0-2.6-1.8l-1-5.3a10,10,0,0,1-4.5-.8,10.5,10.5,0,0,1-3.8,2.5l1,5.2a7.8,7.8,0,0,0-.1,11,8.5,8.5,0,0,0,2.5,1.7l.6,2.7-7.5,1.4a2,2,0,0,0,.7,3.9l23.4-4.5a2.1,2.1,0,0,0,1.5-2.4,2,2,0,0,0-2.3-1.5Z" transform="translate(-0.3 -1.6)" style="fill:url(#d747fd62-11a2-4f26-83ed-2ac97601d933)"/><path d="M427.2,173.1l-1.7,1.4.6,3.1a2,2,0,0,0,2.3,1.6,2,2,0,0,0,1.6-2.3l-.6-3.1Z" transform="translate(-0.3 -1.6)" style="fill:url(#075b0d89-ad5e-467e-8ddf-56534de8fb14)"/><path d="M394.9,163.4a55.3,55.3,0,0,1-3.3,9.4c.5,2.7,3.5,4.3,6.7,3.7s5.3-3.3,4.7-6c.6,2.7,3.5,4.4,6.7,3.8s5.3-3.3,4.8-6c.5,2.7,3.5,4.4,6.6,3.8s5.3-3.3,4.8-6c.5,2.7,3.5,4.4,6.6,3.8s5.3-3.3,4.8-6a51.4,51.4,0,0,1-6.5-7.5Z" transform="translate(-0.3 -1.6)" style="fill:url(#dd8966be-fd7c-41f7-8b87-4f51353e0b7d)"/><path d="M428.4,152.9a56.7,56.7,0,0,1-3.3-6.5,14.2,14.2,0,0,1-1.1-3.3l-1.5-7.9a2.2,2.2,0,0,0-2.5-1.9l-23.8,4.6a2.2,2.2,0,0,0-1.6,2.7l1.6,8a12.2,12.2,0,0,1,.2,3.3,59.9,59.9,0,0,1-.6,7.3l32.6-6.3Z" transform="translate(-0.3 -1.6)" style="fill:url(#d6654d21-76c0-4c43-98f9-4ad4e43449cf)"/><path d="M124.6,209.6l-1-.3a22.1,22.1,0,0,1-10.5-8.6l-7.5,3.3-1.8-4.2,7-3.2-1.7-3.1-7.8,3.5-1.9-4.3,7.4-3.3-1.7-3.1L96.9,190,95,185.7l7.8-3.5-3.4-6a3.7,3.7,0,0,0-6.7.5l-.7,1.9a12.1,12.1,0,0,1-23.4-3.5v-1.3a3.1,3.1,0,0,0-3.2-2.8,2.8,2.8,0,0,0-2.6,1.9l-7.2,18.6,74.4,28.6A8.9,8.9,0,0,0,124.6,209.6Z" transform="translate(-0.3 -1.6)" style="fill:url(#64f9addb-0550-4310-9635-c70f340d66e0)"/><path d="M54.7,196.2a8.6,8.6,0,0,0,5.5,7.3l58.2,22.3a8.7,8.7,0,0,0,9-1.7Z" transform="translate(-0.3 -1.6)" style="fill:url(#5f547854-2191-489e-8b6a-8d3532128423)"/><path d="M282.9,262.9l-.4-.2L186.8,251c-.2-.1-.5.1-.5.4h0c0,.1.3,9.1,11.5,10.5l71.4,8.7c11.2,1.4,13.7-7.3,13.7-7.4S282.9,263,282.9,262.9Zm-41.8,1.2-14.4-1.7.4-3.3,14.4,1.7Z" transform="translate(-0.3 -1.6)" style="fill:url(#9ac234c2-66af-4019-bd33-4506b5dc7f7e)"/><path d="M197.2,248.7,273,258a1.9,1.9,0,0,0,2.2-1.7l5.7-46.6a2,2,0,0,0-1.7-2.2l-75.8-9.3a2,2,0,0,0-2.2,1.8l-5.8,46.5A2,2,0,0,0,197.2,248.7Zm10.3-42.9,65.9,8.1-4.5,36.6L203,242.4Z" transform="translate(-0.3 -1.6)" style="fill:url(#4efba8cb-b130-40ef-a852-5359d9046efc)"/><path d="M789.1,33.4l3.5.9s.8-1.7,2-3.7,5.6-2.8,10.1-1.6l44.9,12c4.5,1.2,7.9,4.1,7.6,6.4l-.5,4.1,3.1.9a8.4,8.4,0,0,0,10.3-6l4.1-15.2a8.4,8.4,0,0,0-3.9-9.5,10.7,10.7,0,0,1-.3,2.5l-.9,3.3a10.1,10.1,0,0,1-12.4,7.1l-56-15a10.2,10.2,0,0,1-7.2-12.4l.9-3.3a6.7,6.7,0,0,1,1-2.3,8.6,8.6,0,0,0-8.2,6.2l-4,15.3a8.4,8.4,0,0,0,5.9,10.3Z" transform="translate(-0.3 -1.6)" style="fill:url(#1c5b07db-7504-49ea-bd00-abb6df432d91)"/><path d="M801.6,16.3l56,15.1a6.7,6.7,0,0,0,8.2-4.8l.9-3.3a5.7,5.7,0,0,0,.1-2.9L799,2.3a6,6,0,0,0-1.3,2.5l-.9,3.3A6.6,6.6,0,0,0,801.6,16.3Zm-.7-10.4,61.6,16.5a.8.8,0,0,1,.6,1,.9.9,0,0,1-1.1.6L800.5,7.5a.8.8,0,0,1-.6-1,.7.7,0,0,1,1-.6ZM799.5,11l61.6,16.5a.8.8,0,0,1,.6,1,.9.9,0,0,1-1,.6h0L799.1,12.6a.9.9,0,0,1-.6-1,.7.7,0,0,1,1-.6Z" transform="translate(-0.3 -1.6)" style="fill:url(#32d24963-eb20-4796-b09e-b0b10dc06ee6)"/><path d="M854.4,47.7c.2-1.7-3.3-4.1-7.8-5.3L806.1,31.5c-4.5-1.2-8.7-.9-9.5.7l-1.3,2.9L854,50.8Z" transform="translate(-0.3 -1.6)" style="fill:url(#f22061a3-2ac6-4623-a825-631c3e7a9d7f)"/><path d="M793.9,61.9a1.8,1.8,0,0,0,2.4.5c.3-.2,8-5.6,5.1-12.4-1.7-3.8.6-5.1,1.1-5.3a1.7,1.7,0,1,0-1.3-3.1c-2.1.9-5.4,4.1-2.9,9.8s-3.9,8.2-3.9,8.2A1.7,1.7,0,0,0,793.9,61.9Z" transform="translate(-0.3 -1.6)" style="fill:url(#bc058c24-0f45-4675-82fb-2e3b1f0808c6)"/><path d="M808.2,65.8a1.7,1.7,0,0,0,2.3.4c.4-.2,8.1-5.5,5.1-12.4-1.6-3.7.7-5,1.2-5.3a1.7,1.7,0,0,0,.9-2.2,1.8,1.8,0,0,0-2.3-.9c-2,.9-5.3,4.1-2.9,9.8,1.9,4.2-3.8,8.2-3.9,8.2A1.8,1.8,0,0,0,808.2,65.8Z" transform="translate(-0.3 -1.6)" style="fill:url(#66b9be7d-78f8-47b0-8732-053891cf1aed)"/><path d="M822.5,69.6a1.5,1.5,0,0,0,2.3.4c.3-.2,8.1-5.5,5.1-12.3-1.6-3.8.7-5.1,1.2-5.4a1.6,1.6,0,0,0,.8-2.2,1.7,1.7,0,0,0-2.2-.8c-2.1.9-5.3,4.1-2.9,9.7s-3.8,8.2-3.9,8.2A1.7,1.7,0,0,0,822.5,69.6Z" transform="translate(-0.3 -1.6)" style="fill:url(#766778a9-aafe-416d-ac20-84bb5cfe8115)"/><path d="M836.7,73.4a1.8,1.8,0,0,0,2.4.5c.3-.3,8-5.6,5.1-12.4-1.7-3.8.7-5.1,1.1-5.3a1.7,1.7,0,0,0,.9-2.3,1.7,1.7,0,0,0-2.2-.8c-2.1.9-5.4,4.1-2.9,9.7s-3.9,8.2-3.9,8.3A1.6,1.6,0,0,0,836.7,73.4Z" transform="translate(-0.3 -1.6)" style="fill:url(#c31ebd1f-cc04-461b-ac0c-c5f7939b52ef)"/></svg>